<?xml version="1.0" encoding="utf-8"?>
<!-- Generator: Adobe Illustrator 25.2.1, SVG Export Plug-In . SVG Version: 6.00 Build 0)  -->
<svg version="1.1" xmlns="http://www.w3.org/2000/svg" xmlns:xlink="http://www.w3.org/1999/xlink" x="0px" y="0px"
	 viewBox="0 0 1764 1764" style="enable-background:new 0 0 1764 1764;" xml:space="preserve">
<style type="text/css">
	.st0{fill:url(#SVGID_1_);}
	.st1{fill:#B7E0C0;}
	.st2{fill:url(#SVGID_2_);}
	.st3{display:none;}
	.st4{display:inline;fill:#FFFFFF;}
	.st5{fill:#11992D;}
	.st6{fill:url(#SVGID_3_);}
	.st7{fill:url(#SVGID_4_);}
	.st8{fill:url(#SVGID_5_);}
	.st9{fill:url(#SVGID_6_);}
	.st10{fill:url(#SVGID_7_);}
</style>
<g id="Слой_8">
	<linearGradient id="SVGID_1_" gradientUnits="userSpaceOnUse" x1="315" y1="1093.5" x2="1449" y2="1093.5">
		<stop  offset="0" style="stop-color:#EFFCF1"/>
		<stop  offset="0.8612" style="stop-color:#FCFEFD"/>
		<stop  offset="1" style="stop-color:#FFFFFF"/>
	</linearGradient>
	<polygon class="st0" points="315,1278 765,1458 1089,1440 1449,1287 1422,729 828,972 666,846 324,756 	"/>
</g>
<g id="Слой_1">
</g>
<g id="Слой_2">
</g>
<g id="Слой_7">
	<polygon class="st1" points="1530.35,496.64 1458.35,469.64 1458.35,541.64 1530.35,568.64 	"/>
	<linearGradient id="SVGID_2_" gradientUnits="userSpaceOnUse" x1="677.0944" y1="878.0258" x2="1394.9768" y2="626.0258">
		<stop  offset="0" style="stop-color:#22D146"/>
		<stop  offset="0.3875" style="stop-color:#1FC441"/>
		<stop  offset="1" style="stop-color:#19A637"/>
	</linearGradient>
	<polygon class="st2" points="1530.35,568.64 1458.35,541.64 1458.35,613.64 1530.35,640.64 	"/>
	<g>
		<polygon class="st1" points="306.35,396.88 234.35,423.88 234.35,495.88 306.35,468.88 378.35,441.88 442.85,417.69 
			442.85,345.69 378.35,369.88 		"/>
		<polygon class="st1" points="234.35,567.88 234.35,639.88 306.35,612.88 378.35,585.88 378.35,513.88 306.35,540.88 		"/>
		<polygon class="st1" points="459.85,339.31 459.85,555.31 522.35,531.88 522.35,459.88 522.35,387.88 522.35,315.88 		"/>
	</g>
	<g>
		<polygon class="st1" points="666.35,333.88 666.35,405.88 666.35,477.88 738.35,450.88 802.35,426.88 802.35,282.88 
			738.35,306.88 		"/>
		<polygon class="st1" points="954.35,207.76 890.85,183.95 890.85,255.95 954.35,279.76 1026.35,306.76 1026.35,378.76 
			1026.35,450.76 1098.35,477.76 1098.35,405.76 1098.35,333.76 1098.35,261.76 1026.35,234.76 		"/>
		<polygon class="st1" points="1170.35,361.64 1170.35,433.64 1170.35,505.64 1242.35,532.64 1306.35,556.64 1306.35,412.64 
			1242.35,388.64 		"/>
		<polygon class="st1" points="1458.35,397.64 1386.35,370.64 1323.35,347.02 1323.35,419.02 1386.35,442.64 1458.35,469.64 
			1530.35,496.64 1530.35,424.64 		"/>
		<polygon class="st1" points="819.35,420.5 873.85,400.06 873.85,184.06 819.35,204.5 		"/>
	</g>
</g>
<g id="Слой_3" class="st3">
	<polygon class="st4" points="1170,936 1098,963 1098,891 1170,864 	"/>
	<polygon class="st4" points="1242,909 1170,936 1170,864 1242,837 	"/>
	<polygon class="st4" points="1314,882 1242,909 1242,837 1314,810 	"/>
	<polygon class="st4" points="1386,855 1314,882 1314,810 1386,783 	"/>
	<polygon class="st4" points="1098,1035 1026,1062 1026,990 1098,963 	"/>
	<polygon class="st4" points="1386,927 1314,954 1314,882 1386,855 	"/>
	<polygon class="st4" points="1098,1107 1026,1134 1026,1062 1098,1035 	"/>
	<polygon class="st4" points="1386,999 1314,1026 1314,954 1386,927 	"/>
	<polygon class="st4" points="1098,1179 1026,1206 1026,1134 1098,1107 	"/>
	<polygon class="st4" points="1386,1071 1314,1098 1314,1026 1386,999 	"/>
	<polygon class="st4" points="1098,1251 1026,1278 1026,1206 1098,1179 	"/>
	<polygon class="st4" points="1170,1224 1098,1251 1098,1179 1170,1152 	"/>
	<polygon class="st4" points="1242,1197 1170,1224 1170,1152 1242,1125 	"/>
	<polygon class="st4" points="1314,1170 1242,1197 1242,1125 1314,1098 	"/>
	<polygon class="st4" points="1386,1143 1314,1170 1314,1098 1386,1071 	"/>
	<polygon class="st4" points="1098,1323 1026,1350 1026,1278 1098,1251 	"/>
	<polygon class="st4" points="1386,1215 1314,1242 1314,1170 1386,1143 	"/>
	<polygon class="st4" points="1098,1395 1026,1422 1026,1350 1098,1323 	"/>
	<polygon class="st4" points="1386,1287 1314,1314 1314,1242 1386,1215 	"/>
</g>
<g id="Слой_4">
	<g>
		<path class="st5" d="M810,873.03l-72-27l-72-27l-72-27l-72-27l-72-27l-72-27l-72-27l-72-27v72v72v72v72v72v72v72v72v72l72,27
			l72,27l72,27l72,27l72,27l72,27l72,27l72,27l72,27v-72v-72v-72v-72v-72v-72v-72v-72v-72L810,873.03z M594,1368.03l-72-27l-72-27
			l-72-27v-72v-72v-72v-72v-72v-72v-72l72,27l72,27l72,27l72,27v72l72,27v72v72v72v72v72l-72-27v72L594,1368.03z"/>
		<polygon class="st5" points="522,909.03 450,882.03 450,954.03 450,1026.03 450,1098.03 450,1170.03 450,1242.03 522,1269.03 
			594,1296.03 666,1323.03 666,1251.03 666,1179.03 666,1107.03 666,1035.03 666,963.03 594,936.03 		"/>
	</g>
</g>
<g id="Слой_5">
</g>
<g id="Слой_6">
	<g>
		<polygon class="st5" points="666,585.38 666,657.38 666,729.38 738,756.38 802,780.38 802,636.38 738,612.38 		"/>
		<polygon class="st5" points="819,642.76 819,858.76 873.5,879.19 873.5,663.19 		"/>
	</g>
	<g>
		<polygon class="st5" points="306,594.38 234,567.38 234,639.38 306,666.38 378,693.38 442.5,717.57 442.5,645.57 378,621.38 		"/>
		<polygon class="st5" points="378,549.38 378,477.38 306,450.38 234,423.38 234,495.38 306,522.38 		"/>
		<polygon class="st5" points="459.5,507.94 459.5,723.94 522,747.38 522,675.38 522,603.38 522,531.38 		"/>
	</g>
	<g>
		<linearGradient id="SVGID_3_" gradientUnits="userSpaceOnUse" x1="805.2714" y1="1243.1687" x2="1523.1538" y2="991.1687">
			<stop  offset="0" style="stop-color:#22D146"/>
			<stop  offset="0.3875" style="stop-color:#1FC441"/>
			<stop  offset="1" style="stop-color:#19A637"/>
		</linearGradient>
		<path class="st6" d="M1386,711l-72,27l-72,27l-72,27l-72,27l-72,27l-72,27l-72,27v72v72v72v72v72v72v72v72v72l72-27l72-27l72-27
			l72-27l72-27l72-27l72-27l72-27l72-27v-72v-72v-72v-72v-72v-72v-72v-72v-72l-72,27L1386,711z M1314,1314v-72v-72l-72,27l-72,27
			l-72,27v72v72l-72,27v-72v-72v-72v-72v-72v-72l72-27v-72l72-27l72-27l72-27l72-27v72v72v72v72v72v72v72L1314,1314z"/>
		<linearGradient id="SVGID_4_" gradientUnits="userSpaceOnUse" x1="782.7698" y1="1179.0675" x2="1500.6522" y2="927.0675">
			<stop  offset="0" style="stop-color:#22D146"/>
			<stop  offset="0.3875" style="stop-color:#1FC441"/>
			<stop  offset="1" style="stop-color:#19A637"/>
		</linearGradient>
		<polygon class="st7" points="1098,1107 1098,1179 1170,1152 1242,1125 1314,1098 1314,1026 1314,954 1314,882 1242,909 1170,936 
			1098,963 1098,1035 		"/>
		<linearGradient id="SVGID_5_" gradientUnits="userSpaceOnUse" x1="666.3788" y1="847.4997" x2="1384.2611" y2="595.4997">
			<stop  offset="0" style="stop-color:#22D146"/>
			<stop  offset="0.3875" style="stop-color:#1FC441"/>
			<stop  offset="1" style="stop-color:#19A637"/>
		</linearGradient>
		<polygon class="st8" points="1026,828.5 1098,801.5 1098,729.5 1098,657.5 1098,585.5 1026,612.5 1026,684.5 1026,756.5 
			954,783.5 890.5,807.31 890.5,879.31 954,855.5 		"/>
		<linearGradient id="SVGID_6_" gradientUnits="userSpaceOnUse" x1="662.8653" y1="837.4907" x2="1380.7477" y2="585.4907">
			<stop  offset="0" style="stop-color:#22D146"/>
			<stop  offset="0.3875" style="stop-color:#1FC441"/>
			<stop  offset="1" style="stop-color:#19A637"/>
		</linearGradient>
		<polygon class="st9" points="1458,449.62 1458,521.62 1458,593.62 1386,620.62 1323,644.24 1323,716.24 1386,692.62 1458,665.62 
			1530,638.62 1530,566.62 1530,494.62 1530,422.62 		"/>
		<linearGradient id="SVGID_7_" gradientUnits="userSpaceOnUse" x1="653.0264" y1="809.4623" x2="1370.9088" y2="557.4623">
			<stop  offset="0" style="stop-color:#22D146"/>
			<stop  offset="0.3875" style="stop-color:#1FC441"/>
			<stop  offset="1" style="stop-color:#19A637"/>
		</linearGradient>
		<polygon class="st10" points="1306,650.62 1306,506.62 1242,530.62 1170,557.62 1170,629.62 1170,701.62 1242,674.62 		"/>
	</g>
</g>
</svg>
