<svg xmlns="http://www.w3.org/2000/svg" viewBox="0 0 100 100"><defs><style>.a{fill:#f0f4f8;}.b{fill:#8c92a9;}</style></defs><title>ic_b-experts</title><circle class="a" cx="50" cy="50" r="50"/><path class="b" d="M63.242,32.606v6.3l5.6-5.6H70.7a7.152,7.152,0,0,0,0-14.3H66.3a7.153,7.153,0,0,0-3.062,13.606ZM66.3,22H70.7a4.152,4.152,0,0,1,0,8.3H67.6l-1.358,1.358V30.453l-1.081-.315A4.152,4.152,0,0,1,66.3,22Z"/><path class="b" d="M78.65,56.3l-5.413-2.711-.147-.843a13.138,13.138,0,0,0,1.565-2.51,2.134,2.134,0,0,0,1.234-1.93V46.257a2.185,2.185,0,0,0-.522-1.474c-.279-3.105-2.19-6.142-6.867-6.142s-6.586,3.036-6.865,6.141a2.184,2.184,0,0,0-.524,1.475V48.3a2.135,2.135,0,0,0,1.235,1.93,13.176,13.176,0,0,0,1.564,2.51l-.147.843L58.351,56.3A2.422,2.422,0,0,0,57,58.471v.32l3,1.5V58.825L65.439,56.1l1.51,1.779-1.412,6.224a1.5,1.5,0,0,0,.381,1.37l1.5,1.564a1.5,1.5,0,0,0,2.164,0l1.5-1.564a1.5,1.5,0,0,0,.381-1.37l-1.412-6.224,1.51-1.779L77,58.825v6.6a1.5,1.5,0,1,0,3,0V58.471A2.422,2.422,0,0,0,78.65,56.3Zm-5.761-8.612a1.516,1.516,0,0,0-.734.79c-.4,1-1.937,3.85-3.655,3.85s-3.252-2.851-3.653-3.847a1.479,1.479,0,0,0-.736-.8V46.71a1.5,1.5,0,0,0,.487-1.105c0-3.964,2.937-3.964,3.9-3.964s3.9,0,3.9,3.964a1.5,1.5,0,0,0,.486,1.105Z"/><path class="b" d="M44.742,38.356v6.3l5.6-5.6H52.2a7.152,7.152,0,0,0,0-14.3H47.8a7.153,7.153,0,0,0-3.062,13.606ZM47.8,27.75H52.2a4.152,4.152,0,0,1,0,8.3H49.1l-1.358,1.358V36.2l-1.081-.315A4.152,4.152,0,0,1,47.8,27.75Z"/><path class="b" d="M60.15,62.046l-5.413-2.711-.147-.843a13.138,13.138,0,0,0,1.565-2.51,2.134,2.134,0,0,0,1.234-1.93V52.007a2.185,2.185,0,0,0-.522-1.474c-.279-3.105-2.19-6.142-6.867-6.142s-6.586,3.036-6.865,6.141a2.184,2.184,0,0,0-.524,1.475v2.045a2.135,2.135,0,0,0,1.235,1.93,13.176,13.176,0,0,0,1.564,2.51l-.147.843-5.412,2.711A2.422,2.422,0,0,0,38.5,64.221v.32l3,1.5V64.575l5.439-2.723,1.51,1.779-1.412,6.224a1.5,1.5,0,0,0,.381,1.37l1.5,1.564a1.5,1.5,0,0,0,2.164,0l1.5-1.564a1.5,1.5,0,0,0,.381-1.37l-1.412-6.224,1.51-1.779L58.5,64.575v6.6a1.5,1.5,0,1,0,3,0V64.221A2.422,2.422,0,0,0,60.15,62.046Zm-5.761-8.612a1.516,1.516,0,0,0-.734.79c-.4,1-1.937,3.85-3.655,3.85s-3.252-2.851-3.653-3.847a1.479,1.479,0,0,0-.736-.8V52.46a1.5,1.5,0,0,0,.487-1.105c0-3.964,2.937-3.964,3.9-3.964s3.9,0,3.9,3.964a1.5,1.5,0,0,0,.486,1.105Z"/><path class="b" d="M41.65,67.8l-5.413-2.711-.147-.843a13.169,13.169,0,0,0,1.565-2.51,2.134,2.134,0,0,0,1.234-1.93V57.757a2.185,2.185,0,0,0-.522-1.474c-.279-3.105-2.19-6.142-6.867-6.142s-6.586,3.036-6.865,6.141a2.184,2.184,0,0,0-.524,1.475V59.8a2.135,2.135,0,0,0,1.235,1.93,13.176,13.176,0,0,0,1.564,2.51l-.147.843L21.351,67.8A2.422,2.422,0,0,0,20,69.971v6.956a1.5,1.5,0,0,0,3,0v-6.6L28.439,67.6l1.51,1.779L28.537,75.6a1.5,1.5,0,0,0,.381,1.371l1.5,1.564a1.5,1.5,0,0,0,2.164,0l1.5-1.564a1.5,1.5,0,0,0,.381-1.371l-1.412-6.223,1.51-1.779L40,70.325v6.6a1.5,1.5,0,0,0,3,0V69.971A2.422,2.422,0,0,0,41.65,67.8ZM27.111,58.21A1.5,1.5,0,0,0,27.6,57.1c0-3.963,2.937-3.963,3.9-3.963s3.9,0,3.9,3.963a1.5,1.5,0,0,0,.486,1.105v.975a1.516,1.516,0,0,0-.734.79c-.4,1-1.937,3.85-3.655,3.85s-3.252-2.851-3.653-3.847a1.479,1.479,0,0,0-.736-.8Z"/><path class="b" d="M26.242,44.105v6.3l5.6-5.6H33.7a7.152,7.152,0,0,0,0-14.3H29.3a7.152,7.152,0,0,0-3.062,13.6ZM29.3,33.5H33.7a4.152,4.152,0,0,1,0,8.3H30.6l-1.358,1.358V41.953l-1.081-.315A4.152,4.152,0,0,1,29.3,33.5Z"/></svg>