<svg xmlns="http://www.w3.org/2000/svg" viewBox="0 0 100 100"><defs><style>.a{fill:#f0f4f8;}.b{fill:#8c92a9;}</style></defs><title>ic_b-results</title><circle class="a" cx="50" cy="50" r="50"/><path class="b" d="M70.8,56.5H59v-3H70.8a1.5,1.5,0,0,1,0,3ZM76.546,20H46.454A3.464,3.464,0,0,0,43,23.454V28h3V23.454A.466.466,0,0,1,46.454,23H76.546a.466.466,0,0,1,.454.454V57.521a1.158,1.158,0,0,1-.342.826l-8.311,8.311a1.158,1.158,0,0,1-.826.342H59v.521A6.145,6.145,0,0,1,58.478,70h9.043a4.164,4.164,0,0,0,2.947-1.221l8.311-8.311A4.164,4.164,0,0,0,80,57.521V23.454A3.464,3.464,0,0,0,76.546,20ZM63,26.1v.017a11.986,11.986,0,1,1-4,23.613V46.639a8.938,8.938,0,0,0,9.329-2.793l-7.6-4.56a34.221,34.221,0,0,1-.3-.239,1.419,1.419,0,0,1-.116-.152,1.487,1.487,0,0,1-.117-.157,28.131,28.131,0,0,1-.145-.358,1.458,1.458,0,0,1-.026-.2A1.343,1.343,0,0,1,60,38V29.135a8.971,8.971,0,0,0-2.346.743,5.454,5.454,0,0,0-2.941-1.749A11.935,11.935,0,0,1,60,26.1h0c.185-.023.371-.04.557-.056.312-.025.625-.048.943-.048.4,0,.784.033,1.17.071C62.78,26.082,62.891,26.09,63,26.1Zm6.954,8.84L64.48,38.039l5.394,3.236a8.853,8.853,0,0,0,.08-6.331ZM63,29.14v6.289l5.481-3.1A9,9,0,0,0,63,29.14ZM65.606,61a1.5,1.5,0,0,0-1.5-1.5H59v3h5.106A1.5,1.5,0,0,0,65.606,61Z"/><path class="b" d="M53.546,33a.466.466,0,0,1,.454.454V67.521a1.158,1.158,0,0,1-.342.826l-8.311,8.311a1.158,1.158,0,0,1-.826.342H23.454A.466.466,0,0,1,23,76.546V33.454A.466.466,0,0,1,23.454,33H53.546m0-3H23.454A3.464,3.464,0,0,0,20,33.454V76.546A3.464,3.464,0,0,0,23.454,80H44.521a4.164,4.164,0,0,0,2.947-1.221l8.311-8.311A4.164,4.164,0,0,0,57,67.521V33.454A3.464,3.464,0,0,0,53.546,30ZM47.605,66.5H29a1.5,1.5,0,0,1,0-3h18.6a1.5,1.5,0,0,1,0,3Zm1.5-7.5a1.5,1.5,0,0,0-1.5-1.5H29a1.5,1.5,0,0,0,0,3h18.6A1.5,1.5,0,0,0,49.105,59Zm-6.7,12a1.5,1.5,0,0,0-1.5-1.5H29a1.5,1.5,0,0,0,0,3H40.909A1.5,1.5,0,0,0,42.409,71ZM43.5,40.5v-3h-10v6h-7V52h3V46.5h4V52h3V40.5h4V52h3V43.5h4V52h3V40.5Z"/></svg>