<svg xmlns="http://www.w3.org/2000/svg" viewBox="0 0 100 100"><defs><style>.a{fill:#f0f4f8;}.b{fill:#8c92a9;}</style></defs><title>ic_b-monitoring-sp</title><circle class="a" cx="50" cy="50" r="50"/><path class="b" d="M37,66v2H35.5V66Zm0,3H35.5v2H37Zm-1.5-6v2H37V63Zm-1,8V69H33v2ZM33,60v2h1.5V60Zm2.5,0v2H37V60Zm-1,8V66H33v2Zm0-3V63H33v2ZM38,68h1.5V66H38Zm0-3h1.5V63H38Zm0,6h1.5V69H38Zm0-11v2h1.5V60Zm-6,3H30.5v2H32Zm0-3H30.5v2H32Zm0,6H30.5v2H32Zm0,3H30.5v2H32Z"/><path class="b" d="M67,66v2H65.5V66Zm0,3H65.5v2H67Zm-1.5-6v2H67V63Zm-1,8V69H63v2ZM63,60v2h1.5V60Zm2.5,0v2H67V60Zm-1,8V66H63v2Zm0-3V63H63v2ZM68,68h1.5V66H68Zm0-3h1.5V63H68Zm0,6h1.5V69H68Zm0-11v2h1.5V60Zm-6,3H60.5v2H62Zm0-3H60.5v2H62Zm0,6H60.5v2H62Zm0,3H60.5v2H62Z"/><path class="b" d="M52,66v2H50.5V66Zm0,3H50.5v2H52Zm-1.5-6v2H52V63Zm-1,8V69H48v2ZM48,60v2h1.5V60Zm2.5,0v2H52V60Zm-1,8V66H48v2Zm0-3V63H48v2ZM53,68h1.5V66H53Zm0-3h1.5V63H53Zm0,6h1.5V69H53Zm0-11v2h1.5V60Zm-6,3H45.5v2H47Zm0-3H45.5v2H47Zm0,6H45.5v2H47Zm0,3H45.5v2H47Zm1-12v2h1.5V57Zm2.5,0v2H52V57ZM53,57v2h1.5V57Zm-6,0H45.5v2H47Z"/><path class="b" d="M60.5,73v6h4V73Zm3,4h-2V75.5a1,1,0,0,1,2,0Zm2-4v6h4V73Zm3,4h-2V75.5a1,1,0,0,1,2,0Z"/><path class="b" d="M30.5,73v6h4V73Zm3,4h-2V75.5a1,1,0,0,1,2,0Zm2-4v6h4V73Zm3,4h-2V75.5a1,1,0,0,1,2,0Z"/><path class="b" d="M54.5,72.5V79h-2V74.5h-5V79h-2V72.5ZM52,78H48v1h4Z"/><path class="b" d="M72.5,55.5H59v-3H50.5V50.493c1.049.056,2.1.777,3.147.21V48.215c-1.382.747-2.765-.746-4.147,0V52.5H41v3H27.5L26,58V79h3V58.5H41V79h3V55.5H56V79h3V58.5H71V79h3V58Z"/><path class="b" d="M43.009,36.964a1,1,0,0,0-.531,1.31,3.5,3.5,0,1,1-1.865-1.864,1,1,0,1,0,.78-1.841,5.5,5.5,0,0,0-6.031,1.178,5.5,5.5,0,1,0,8.957,1.748A1,1,0,0,0,43.009,36.964Z"/><path class="b" d="M68.911,34.39h0l0-.006,0-.005-5.8-9.1a6.542,6.542,0,0,0-4.725-2.96l-1.146-1.8a3.273,3.273,0,0,0-.46-.574,3.437,3.437,0,0,0-4.745,0,3.336,3.336,0,0,0-.984,2.374v5.009H48.954V22.324a3.335,3.335,0,0,0-.983-2.373,3.438,3.438,0,0,0-4.743,0,3.278,3.278,0,0,0-.46.572l-1.149,1.8a6.543,6.543,0,0,0-4.729,2.966l-5.8,9.1a9.7,9.7,0,1,0,17.86,5.253v-.371h2.092v.371A9.7,9.7,0,1,0,68.911,34.39Zm-8.33-7.49,2.05,3.216a9.813,9.813,0,0,0-1.883-.183,9.626,9.626,0,0,0-6.7,2.7V28.817a3.525,3.525,0,0,1,1.039-2.509h0a3.549,3.549,0,0,1,5.019,0A3.6,3.6,0,0,1,60.581,26.9ZM48.954,30.333h2.092v1.79H48.954Zm5.2-8.261a.393.393,0,0,1,.553.061l.4.625a6.574,6.574,0,0,0-1.056.557v-.991A.355.355,0,0,1,54.15,22.072Zm-8.3,0a.354.354,0,0,1,.1.251v.991a6.506,6.506,0,0,0-1.05-.555l.442-.688A.479.479,0,0,1,45.851,22.073Zm-6.436,4.833a3.627,3.627,0,0,1,.482-.6,3.549,3.549,0,0,1,5.018,0h0a3.525,3.525,0,0,1,1.039,2.509v3.815a9.626,9.626,0,0,0-6.7-2.7,9.8,9.8,0,0,0-1.882.183Zm4.576,17.47a6.7,6.7,0,0,1-10.376-8.367,6.728,6.728,0,0,1,.9-1.113,6.7,6.7,0,0,1,9.479,9.48Zm4.963-8.111V35.123h2.092v1.142Zm16.534,8.111a6.7,6.7,0,1,1,0-9.48,6.8,6.8,0,0,1,.9,1.114,6.707,6.707,0,0,1-.9,8.366Z"/><path class="b" d="M64.505,36.964a1,1,0,0,0-.531,1.31,3.5,3.5,0,0,1-1.864,4.588A3.507,3.507,0,0,1,57.522,41,3.5,3.5,0,0,1,62.11,36.41a1,1,0,1,0,.78-1.841,5.5,5.5,0,0,0-6.031,1.178,5.5,5.5,0,1,0,8.956,1.748A1,1,0,0,0,64.505,36.964Z"/></svg>