<svg xmlns="http://www.w3.org/2000/svg" viewBox="0 0 100 100"><defs><style>.a{fill:#f0f4f8;}.b{fill:#8c92a9;}</style></defs><title>ic_b-planning</title><circle class="a" cx="50" cy="50" r="50"/><path class="b" d="M55.5,39.6A1.5,1.5,0,0,1,54,41.1h-11.4a1.5,1.5,0,0,1,0-3H54A1.5,1.5,0,0,1,55.5,39.6ZM54,44.1h-11.4a1.5,1.5,0,0,0,0,3H54a1.5,1.5,0,0,0,0-3ZM37.938,42.6a5,5,0,1,1-5-5A5,5,0,0,1,37.938,42.6Zm-3,0a2,2,0,1,0-2,2A2,2,0,0,0,34.938,42.6ZM54,50.484h-11.4a1.5,1.5,0,0,0,0,3H54a1.5,1.5,0,0,0,0-3Zm0,6h-11.4a1.5,1.5,0,0,0,0,3H54a1.5,1.5,0,0,0,0-3Zm-16.062-1.5a5,5,0,1,1-5-5A5,5,0,0,1,37.938,54.984Zm-3,0a2,2,0,1,0-2,2A2,2,0,0,0,34.938,54.984ZM54,62.869h-11.4a1.5,1.5,0,1,0,0,3H54a1.5,1.5,0,0,0,0-3Zm0,6h-11.4a1.5,1.5,0,1,0,0,3H54a1.5,1.5,0,0,0,0-3Zm-16.062-1.5a5,5,0,1,1-5-5A5,5,0,0,1,37.938,67.369Zm-3,0a2,2,0,1,0-2,2A2,2,0,0,0,34.938,67.369Z"/><path class="b" d="M57,28H53.474a3.663,3.663,0,0,0-3.648-3.417H47.787a6.6,6.6,0,0,0-12.574,0H33.174A3.663,3.663,0,0,0,29.526,28H26a6.018,6.018,0,0,0-6,6V74a6.018,6.018,0,0,0,6,6H57a6.018,6.018,0,0,0,6-6V34A6.018,6.018,0,0,0,57,28Zm-24.5.257a.674.674,0,0,1,.674-.674h2.714a2.074,2.074,0,0,0,1.974-1.439l.157-.487a3.746,3.746,0,0,1,3-2.626,3.6,3.6,0,0,1,3.913,2.47l.207.643a2.074,2.074,0,0,0,1.974,1.439h2.714a.674.674,0,0,1,.674.674v2.592h-18ZM60,74a3,3,0,0,1-3,3H26a3,3,0,0,1-3-3V34a3,3,0,0,1,3-3h3.5v1.005a1.845,1.845,0,0,0,1.844,1.844H51.656A1.845,1.845,0,0,0,53.5,32.005V31H57a3,3,0,0,1,3,3Z"/><path class="b" d="M79.782,34.6,75.42,25.878a1.587,1.587,0,0,0-2.84,0L68.218,34.6a2.072,2.072,0,0,0-.218.924V77.317A2.683,2.683,0,0,0,70.683,80h6.634A2.683,2.683,0,0,0,80,77.317V35.525A2.072,2.072,0,0,0,79.782,34.6Zm-6.638-3.143a3.356,3.356,0,0,0,1.712,0l1.624,3.247a11.24,11.24,0,0,1-4.96,0ZM77,77H71V73h6Zm0-7H71V37.67a14.6,14.6,0,0,0,6,0Z"/></svg>