<svg xmlns="http://www.w3.org/2000/svg" viewBox="0 0 100 100"><defs><style>.a{fill:#f0f4f8;}.b{fill:#8c92a9;}</style></defs><title>ic_b-persarea</title><circle class="a" cx="50" cy="50" r="50"/><path class="b" d="M73.6,35l-8.139-.016A1.478,1.478,0,0,1,64,33.5v-.01A1.478,1.478,0,0,1,65.469,32h8.139a1.5,1.5,0,0,1-.006,3Zm4.91-12-13.049-.016A1.478,1.478,0,0,1,64,21.5v-.01A1.478,1.478,0,0,1,65.469,20H78.518a1.5,1.5,0,0,1-.006,3Zm0,6-13.049-.016A1.478,1.478,0,0,1,64,27.5v-.01A1.478,1.478,0,0,1,65.469,26H78.518a1.5,1.5,0,0,1-.006,3ZM73.6,80l-8.139-.016A1.478,1.478,0,0,1,64,78.5v-.01A1.478,1.478,0,0,1,65.469,77h8.139a1.5,1.5,0,0,1-.006,3Zm4.91-12-13.049-.016A1.478,1.478,0,0,1,64,66.5v-.01A1.478,1.478,0,0,1,65.469,65H78.518a1.5,1.5,0,0,1-.006,3Zm0,6-13.049-.016A1.478,1.478,0,0,1,64,72.5v-.01A1.478,1.478,0,0,1,65.469,71H78.518a1.5,1.5,0,0,1-.006,3ZM51.6,80l-8.139-.016A1.478,1.478,0,0,1,42,78.5v-.01A1.478,1.478,0,0,1,43.469,77h8.139a1.5,1.5,0,0,1-.006,3Zm4.91-12-13.049-.016A1.478,1.478,0,0,1,42,66.5v-.01A1.478,1.478,0,0,1,43.469,65H56.518a1.5,1.5,0,0,1-.006,3Zm0,6-13.049-.016A1.478,1.478,0,0,1,42,72.5v-.01A1.478,1.478,0,0,1,43.469,71H56.518a1.5,1.5,0,0,1-.006,3ZM29.6,80l-8.139-.016A1.478,1.478,0,0,1,20,78.5v-.01A1.478,1.478,0,0,1,21.469,77h8.139a1.5,1.5,0,0,1-.006,3Zm4.91-12-13.049-.016A1.478,1.478,0,0,1,20,66.5v-.01A1.478,1.478,0,0,1,21.469,65H34.518a1.5,1.5,0,0,1-.006,3Zm0,6-13.049-.016A1.478,1.478,0,0,1,20,72.5v-.01A1.478,1.478,0,0,1,21.469,71H34.518a1.5,1.5,0,0,1-.006,3ZM73.6,57.5l-8.139-.016A1.478,1.478,0,0,1,64,56v-.01A1.478,1.478,0,0,1,65.469,54.5h8.139a1.5,1.5,0,0,1-.006,3Zm4.91-12-13.049-.016A1.478,1.478,0,0,1,64,44v-.01A1.478,1.478,0,0,1,65.469,42.5H78.518a1.5,1.5,0,0,1-.006,3Zm0,6-13.049-.016A1.478,1.478,0,0,1,64,50v-.01A1.478,1.478,0,0,1,65.469,48.5H78.518a1.5,1.5,0,0,1-.006,3Z"/><path class="b" d="M56.242,51.477l-9.979-5.115-.455-2.68a22.781,22.781,0,0,0,3.1-5.026A2.756,2.756,0,0,0,50.781,36.1v-3.66a2.7,2.7,0,0,0-.874-2.1C49.557,23.845,45.531,20,38.985,20S28.413,23.845,28.063,30.341a2.7,2.7,0,0,0-.875,2.1V36.1a2.757,2.757,0,0,0,1.873,2.551,22.779,22.779,0,0,0,3.1,5.025l-.455,2.681-9.98,5.116A3.163,3.163,0,0,0,20,54.3V59a1.5,1.5,0,0,0,3,0V54.3a.175.175,0,0,1,.1-.157l10.648-5.458a1.5,1.5,0,0,0,.8-1.084l.254-1.5a7.061,7.061,0,0,0,8.384,0l.254,1.5a1.5,1.5,0,0,0,.8,1.083l10.648,5.457a.178.178,0,0,1,.1.158V59a1.5,1.5,0,0,0,3,0V54.3A3.165,3.165,0,0,0,56.242,51.477Zm-17.257-6.99c-3.646,0-6.6-5.5-7.428-7.622a1.546,1.546,0,0,0-1.168-.937,1.129,1.129,0,0,1-.2-.057l0-3.243a1.5,1.5,0,0,0,.845-1.35C31.038,27.5,32.417,23,38.985,23s7.947,4.5,7.947,8.278a1.5,1.5,0,0,0,.849,1.352v3.241a1.038,1.038,0,0,1-.18.054,1.5,1.5,0,0,0-1.188.941C45.583,38.985,42.631,44.487,38.985,44.487Z"/><path class="b" d="M29.54,32.778A1.5,1.5,0,0,1,28.758,30l3.692-2.248a1.5,1.5,0,0,1,1.784.166,4.918,4.918,0,0,0,5.619.515,9.621,9.621,0,0,1,8.809-.746,1.5,1.5,0,0,1-1.313,2.7,6.652,6.652,0,0,0-5.972.633,7.8,7.8,0,0,1-8.224-.181L30.318,32.56A1.493,1.493,0,0,1,29.54,32.778Z"/></svg>