<svg xmlns="http://www.w3.org/2000/svg" viewBox="0 0 100 100"><defs><style>.a{fill:#f0f4f8;}.b{fill:#8c92a9;}</style></defs><title>ic_b-knowledge</title><circle class="a" cx="50" cy="50" r="50"/><path class="b" d="M62.32,52.023A19.235,19.235,0,0,0,58.7,49.645a27.808,27.808,0,0,1,9.531-.705,1.5,1.5,0,0,1-.28,2.987A25.918,25.918,0,0,0,62.32,52.023Zm5.945-21.8a20.957,20.957,0,0,0-13.729,2.8,1.5,1.5,0,0,0,1.61,2.532A18,18,0,0,1,67.909,33.2a1.5,1.5,0,0,0,.356-2.978ZM68.239,42.7a23.716,23.716,0,0,0-13.616,2.387,1.5,1.5,0,1,0,1.436,2.634,20.7,20.7,0,0,1,11.876-2.036,1.5,1.5,0,0,0,.3-2.985Zm.013-6.238a22.222,22.222,0,0,0-13.674,2.595A1.5,1.5,0,1,0,56.1,41.641a19.211,19.211,0,0,1,11.818-2.2,1.5,1.5,0,1,0,.33-2.981ZM45.926,47.123a1.5,1.5,0,0,0-.6-2.035A23.712,23.712,0,0,0,31.71,42.7a1.5,1.5,0,0,0,.3,2.985,20.7,20.7,0,0,1,11.876,2.036,1.481,1.481,0,0,0,.717.184A1.5,1.5,0,0,0,45.926,47.123ZM32,51.927a25.819,25.819,0,0,1,5.672.1,19.229,19.229,0,0,1,3.612-2.375,27.785,27.785,0,0,0-9.563-.714A1.5,1.5,0,1,0,32,51.927Zm.025-12.483a19.214,19.214,0,0,1,11.819,2.2,1.487,1.487,0,0,0,.762.209,1.5,1.5,0,0,0,.763-2.792A22.222,22.222,0,0,0,31.7,36.463a1.5,1.5,0,1,0,.33,2.981ZM78.509,26.55H74.941v-.986a1.493,1.493,0,0,0-1.089-1.489A33.2,33.2,0,0,0,65.472,23c-4.481,0-10.769.981-15.492,5.606C45.324,23.981,39,23,34.485,23A32.642,32.642,0,0,0,26.1,24.077a1.5,1.5,0,0,0-1.081,1.478v.981H21.491A1.493,1.493,0,0,0,20,28.027V64.75a1.494,1.494,0,0,0,1.491,1.492,1.617,1.617,0,0,0,.736-.191,33.174,33.174,0,0,1,8.9-2.892,19.037,19.037,0,0,1,.9-3.161,42.5,42.5,0,0,0-9.045,2.435v-32.9h2.061v28.49a1.5,1.5,0,0,0,1.478,1.506,1.027,1.027,0,0,0,.238-.018,50.678,50.678,0,0,1,5.678-.535,19.252,19.252,0,0,1,1.648-2.987c-.065,0-.125,0-.19,0a50.7,50.7,0,0,0-5.911.358V26.75a31.851,31.851,0,0,1,6.471-.7c4.168,0,9.966.944,14,5.423l.016,16.149c.505-.039,1.011-.077,1.526-.077.5,0,.983.038,1.47.075V31.5c4.074-4.494,9.865-5.44,14.017-5.44a30.619,30.619,0,0,1,6.471.7V56.344a53.547,53.547,0,0,0-5.882-.373c-.059,0-.114,0-.173,0a19.3,19.3,0,0,1,1.666,3.016,50.252,50.252,0,0,1,5.682.521,1.466,1.466,0,0,0,1.7-1.222,1.192,1.192,0,0,0,.022-.266V29.533H77.06L77,62.434A42.542,42.542,0,0,0,67.974,60a19.06,19.06,0,0,1,.894,3.117,31.775,31.775,0,0,1,8.826,2.889l.072.046a1.516,1.516,0,0,0,1.484,0A1.46,1.46,0,0,0,80,64.764V28.042A1.493,1.493,0,0,0,78.509,26.55ZM32.04,33.2A18,18,0,0,1,43.8,35.56a1.5,1.5,0,0,0,1.609-2.532,20.955,20.955,0,0,0-13.728-2.8A1.5,1.5,0,1,0,32.04,33.2Z"/><path class="b" d="M36.586,67l-.214-.117a1.637,1.637,0,0,1-.732-.583.307.307,0,0,1,.065-.406,3.129,3.129,0,0,1,.433-.318c.175-.109.185-.158.018-.268a2.119,2.119,0,0,1-.81-.806.434.434,0,0,1,.3-.689c.095-.023.191-.046.285-.075.114-.035.161-.086.055-.193a5.954,5.954,0,0,1-.524-.567,1.071,1.071,0,0,1-.256-.626c-.005-.261.143-.341.5-.392.121-.018.244-.018.407-.029a4.4,4.4,0,0,1-.365-.56,3.483,3.483,0,0,1-.267-.781c-.055-.286.268-.515.578-.446.084.019.171.028.306.049a1.287,1.287,0,0,0-.074-.242,2.319,2.319,0,0,1-.284-1.843.973.973,0,0,1,.134-.284c.117-.169.36-.148.559.029.128.114.266.218.4.327l.051-.032c-.041-.123-.075-.248-.124-.368a2.514,2.514,0,0,1-.106-1.853,1.49,1.49,0,0,1,.369-.569c.271-.255.455-.184.615.1.359.629.7,1.272,1.068,1.892.338.562.706,1.107,1.077,1.648a.62.62,0,0,0,.328.224.572.572,0,0,1,.353.277c.234.364.465.731.717,1.082a.378.378,0,0,0,.29.122.611.611,0,0,1,.534.278c.242.285.521.539.783.808.325.334.652.666.969,1.007a4.372,4.372,0,0,1,.366.469,1.074,1.074,0,0,1-.176,1.473,2.151,2.151,0,0,0-.2.243.505.505,0,0,0,.072.719,1.093,1.093,0,0,0,1.158.317.385.385,0,0,0,.2-.165c.014-.023-.073-.12-.125-.172a1.063,1.063,0,0,1-.2-1.341.277.277,0,0,1,.409-.083c.166.089.307.242.521.21.07-.01.138-.031.266-.061a1.918,1.918,0,0,1-.218-.206,1.321,1.321,0,0,1-.253-.4c-.079-.3.086-.448.4-.392a.709.709,0,0,0,.8-.4,1.483,1.483,0,0,0,.058-1.055,3.3,3.3,0,0,0-.661-1.214.546.546,0,0,0-.289-.136c-.185-.047-.376-.067-.561-.11a1.1,1.1,0,0,0-.932.113,1.228,1.228,0,0,0-.228.305c-.071.1-.073.255-.255.261a.376.376,0,0,1-.348-.23.749.749,0,0,1-.068-.132c-.038-.1-.093-.115-.188-.063a1.184,1.184,0,0,1-1.343-.115.742.742,0,0,1-.332-.636.3.3,0,0,1,.116-.221c.059-.032.165.011.245.036.133.041.26.1.392.14.031.009.075-.025.135-.048a1.39,1.39,0,0,1-.325-.848,1.172,1.172,0,0,1,.906-1.151c.12-.034.234-.09.351-.136l0-.056a1.149,1.149,0,0,0-.21-.1A2.485,2.485,0,0,1,42.42,57.1a.94.94,0,0,1-.342-.637,4.546,4.546,0,0,1,.236-1.2,1.033,1.033,0,0,0-.012-.228,1.338,1.338,0,0,0-.23.023c-.1.026-.183.076-.276.107a.517.517,0,0,0-.361.736c.078.213.209.407.3.617a1.177,1.177,0,0,1-.159,1.181.831.831,0,0,0-.142.763c.06.2-.133.359-.348.3a.819.819,0,0,1-.564-.923c.045-.185-.022-.27-.212-.284s-.387-.041-.537.152c-.03.039-.193.017-.265-.027a.677.677,0,0,1-.2-.708.535.535,0,0,1,.554-.4c.094,0,.189-.009.283-.014l.02-.059c-.116-.143-.241-.279-.345-.43a.82.82,0,0,1,.314-1.233,1.721,1.721,0,0,1,.45-.162,1.22,1.22,0,0,0,.785-.6c.2-.286.454-.562.861-.492a1.956,1.956,0,0,1,.505.211c.15.073.286.174.437.245a.8.8,0,0,1,.48,1.1c-.1.322-.244.633-.374.946-.251.6.256,1.037.794,1.053-.031-.1-.059-.189-.086-.278a3.3,3.3,0,0,1-.152-.513c-.077-.592.236-.862.76-1.057.377-.14.371-.134.3-.535a1.405,1.405,0,0,1,0-.453c.041-.246.293-.379.6-.342a.412.412,0,0,1,.412.437,3.771,3.771,0,0,1-.036.486c-.031.234,0,.28.235.372a2.607,2.607,0,0,1,.545.269.816.816,0,0,1,.288.959c-.05.162-.091.327-.136.49l.049.042a2.477,2.477,0,0,0,.395-.178c.329-.221.656-.448.967-.693a.511.511,0,0,0,.116-.687c-.177-.415-.372-.824-.518-1.25a1.176,1.176,0,0,1,.819-1.613,6.1,6.1,0,0,1,.677-.185c.11-.022.132-.069.13-.163a2.124,2.124,0,0,0-.089-.718.649.649,0,0,1,.378-.9.741.741,0,0,1,.783.14.71.71,0,0,1,.141.765,1.511,1.511,0,0,0-.064.844c.293.087.585.161.868.259a1.151,1.151,0,0,1,.758,1.565,10.517,10.517,0,0,1-.483,1.163.634.634,0,0,0,.256.949c.319.223.653.424.985.629a1.156,1.156,0,0,0,.242.079,2.247,2.247,0,0,0-.069-.308.953.953,0,0,1,.66-1.42c.052-.019.108-.027.16-.045.157-.055.193-.16.171-.324a2.329,2.329,0,0,1-.021-.676c.039-.226.35-.34.634-.282a.426.426,0,0,1,.378.455c0,.168-.018.337-.037.5a.278.278,0,0,0,.236.338,1.8,1.8,0,0,1,.544.266.842.842,0,0,1,.267,1.01c-.043.141-.1.277-.149.418a.922.922,0,0,0-.025.176.738.738,0,0,0,.8-.873c-.084-.283-.211-.553-.307-.833a2.741,2.741,0,0,1-.146-.552.823.823,0,0,1,.561-.855c.188-.095.366-.209.549-.312a.809.809,0,0,1,1.11.231c.116.127.2.28.313.415a.889.889,0,0,0,.5.3,2.028,2.028,0,0,1,.7.31.847.847,0,0,1,.009,1.3c-.07.074-.13.158-.232.284a1.8,1.8,0,0,0,.283.026.583.583,0,0,1,.585.343.759.759,0,0,1-.165.772c-.094.084-.222.147-.307.037-.209-.269-.457-.166-.7-.118a4.255,4.255,0,0,1-.064.616.733.733,0,0,1-.534.539c-.2.06-.368-.048-.324-.248a1.287,1.287,0,0,0-.244-.978,1.107,1.107,0,0,1,.064-1.27.878.878,0,0,0,.133-.874c-.021-.049-.05-.112-.092-.131a6.327,6.327,0,0,0-.6-.236c-.1-.034-.2.006-.175.143s.057.278.09.415a4.774,4.774,0,0,1,.167.682A1.034,1.034,0,0,1,57.29,57.3a7.547,7.547,0,0,1-.825.323c-.051.02-.1.037-.22.079a2.207,2.207,0,0,0,.288.152,1.24,1.24,0,0,1,.957.817,1.306,1.306,0,0,1-.144,1.047c-.031.052-.064.1-.1.164a.345.345,0,0,0,.423-.03c.123-.083.267-.174.388-.065s.079.27.022.418a1.146,1.146,0,0,1-1.53.573c-.238-.12-.24-.114-.36.129a.233.233,0,0,1-.067.089c-.1.063-.2.162-.3.163-.077,0-.192-.116-.225-.2a.7.7,0,0,0-.576-.493,2.781,2.781,0,0,0-.677.049c-.1.012-.207.08-.3.069a.623.623,0,0,0-.643.317,2.609,2.609,0,0,0-.573,1.637.869.869,0,0,0,.632.866.964.964,0,0,0,.252,0c.14-.005.322-.078.389.085a.78.78,0,0,1,0,.423c-.015.076-.1.144-.158.2-.081.078-.172.146-.265.224a.483.483,0,0,0,.573.039c.084-.051.166-.108.255-.152a.255.255,0,0,1,.374.124,1.026,1.026,0,0,1-.28,1.359c-.114.09-.082.224.085.275a1.1,1.1,0,0,0,1.076-.156c.3-.242.406-.481.288-.746a1.231,1.231,0,0,0-.245-.324,1.23,1.23,0,0,1-.4-.95,1.415,1.415,0,0,1,.424-.886c.477-.512.974-1.005,1.461-1.508.2-.207.394-.423.6-.629a.243.243,0,0,1,.173-.082c.371.075.555-.166.722-.421s.309-.521.467-.78a.637.637,0,0,1,.372-.3.95.95,0,0,0,.446-.391c.569-.9,1.119-1.811,1.67-2.721.122-.2.22-.416.33-.625a.365.365,0,0,1,.647-.11,1.633,1.633,0,0,1,.476,1.1,3.526,3.526,0,0,1-.326,1.592.151.151,0,0,0,.013.124c.112-.083.225-.167.338-.249a2.268,2.268,0,0,1,.257-.183.273.273,0,0,1,.388.1,2.847,2.847,0,0,1,.193.67,2.2,2.2,0,0,1-.3,1.326.645.645,0,0,0-.061.116c-.017.055-.047.151-.027.164a.341.341,0,0,0,.187.039c.08,0,.16-.026.24-.025a.417.417,0,0,1,.405.533,2.328,2.328,0,0,1-.5,1.062c-.036.048-.064.1-.113.18.1.017.177.033.254.044.1.014.211.016.313.039a.386.386,0,0,1,.292.6,2.144,2.144,0,0,1-.716.894.9.9,0,0,0-.137.18,3.459,3.459,0,0,0,.339.1c.581.113.582.48.341.866a1.961,1.961,0,0,1-.7.636.865.865,0,0,0-.154.149,1.951,1.951,0,0,0,.166.162c.123.094.262.168.375.272a.346.346,0,0,1,0,.567,5.389,5.389,0,0,1-.6.428c-.081.056-.168.1-.272.165.1.135.2.249.28.369.267.385.116.588-.226.744a2.631,2.631,0,0,1-.587.156c-.138.026-.143.088-.1.2.083.211.169.422.235.638a.392.392,0,0,1-.223.452,3.363,3.363,0,0,1-.689.188c-.135.021-.188.049-.185.19a3.482,3.482,0,0,1-.036.466.462.462,0,0,1-.391.438,1.367,1.367,0,0,1-.808-.017c-.091-.038-.179-.059-.217.113a2.028,2.028,0,0,1-.262.605.436.436,0,0,1-.288.177,1.23,1.23,0,0,1-.829-.149c-.089-.059-.158-.053-.232.05a2.534,2.534,0,0,1-.414.479.54.54,0,0,1-.35.081.985.985,0,0,1-.915-.588c-.048-.105-.105-.117-.2-.033s-.225.155-.327.245c-.439.386-1.2-.069-1.255-.565-.031-.3-.058-.6-.074-.895a.319.319,0,0,0-.2-.309c-.062-.028-.123-.061-.184-.091-.274-.136-.364-.1-.44.2a2.229,2.229,0,0,0,.068,1.424.923.923,0,0,1,.063.361.217.217,0,0,0,.182.245c.129.026.266,0,.4.017a.83.83,0,0,1,.3.064,8.028,8.028,0,0,1,.721.412,1.489,1.489,0,0,1,.646,1.593,1.459,1.459,0,0,0-.04.388.315.315,0,0,0,.217.313c.124.043.3.042.31.243.017.217-.123.328-.273.435a.918.918,0,0,1-.747.1c-.154-.032-.155.025-.158.134-.015.47-.082.513-.545.372a.647.647,0,0,0-.2.007c.039.061.064.146.12.181a4.98,4.98,0,0,0,1.5.56,2.3,2.3,0,0,0,.806.041c.263-.034.31-.193.186-.423a1,1,0,0,0-.092-.159c-.323-.4-.126-.8.022-1.191a2.084,2.084,0,0,1,1.119-1.235c.175-.078.168-.2.14-.357a.785.785,0,0,1,1.454-.586,1.587,1.587,0,0,1,.018.649c-.014.129-.016.211.109.275a2.054,2.054,0,0,1,.9.794A6.028,6.028,0,0,1,62.173,76a.7.7,0,0,1-.129.486,6.983,6.983,0,0,1-.953,1.343,2.173,2.173,0,0,1-1.29.663,1.611,1.611,0,0,0-.711.19.629.629,0,0,1-.61.024c-.353-.166-.686-.373-1.042-.53a4.249,4.249,0,0,0-.792-.245q-.786-.177-1.581-.318c-.415-.074-.834-.12-1.251-.18a2.657,2.657,0,0,1-.348-.056c-.285-.08-.37-.3-.239-.6.145-.33.135-.332-.2-.408a.85.85,0,0,1-.714-.6.22.22,0,0,1,.228-.309c.1,0,.2,0,.3,0a.367.367,0,0,0,.356-.339.651.651,0,0,0-.31-.595.972.972,0,0,0-1.113.259,2.279,2.279,0,0,0-.275.478.584.584,0,0,0,.268.77,1.7,1.7,0,0,1,.657.649.444.444,0,0,1,.049.214.3.3,0,0,0,.207.337,5.62,5.62,0,0,1,1.28.822,1.127,1.127,0,0,0,.42.17c.118.029.191-.052.182-.177-.028-.388.276-.477.58-.31a1.053,1.053,0,0,1,.439,1.275.337.337,0,0,0,.065.4A1.125,1.125,0,0,1,55.66,80.8a1.455,1.455,0,0,0-.234.455c-.087.24-.253.291-.444.158a.959.959,0,0,1-.115-.1c-.138-.131-.215-.133-.318.02a1.062,1.062,0,0,1-.756.49,2.019,2.019,0,0,1-.676-.028.425.425,0,0,0-.481.111,1.475,1.475,0,0,1-1.566.43.266.266,0,0,0-.3.078c-.1.109-.2.209-.307.31-.386.37-.608.332-.966.041a2.256,2.256,0,0,1-.289-.319.315.315,0,0,0-.352-.116,1.536,1.536,0,0,1-1.494-.332.505.505,0,0,1-.081-.1.3.3,0,0,0-.391-.119,1.219,1.219,0,0,1-1.358-.278c-.028-.027-.054-.054-.081-.081-.2-.2-.2-.2-.444-.032s-.439.135-.513-.153a1.528,1.528,0,0,0-.233-.435,1.115,1.115,0,0,1,.047-1.438.317.317,0,0,0,.05-.361,1.011,1.011,0,0,1,.581-1.333.287.287,0,0,1,.412.261c.009.1.043.262.1.275a.5.5,0,0,0,.358-.051c.266-.171.5-.383.766-.559a4.17,4.17,0,0,1,.627-.348.322.322,0,0,0,.241-.3A1.056,1.056,0,0,1,48,76.143c.21-.14.447-.263.466-.56a1.056,1.056,0,0,0-.015-.251,1.213,1.213,0,0,0-.932-.89c-.391-.037-.849.157-.772.757.023.184.164.237.316.259a2.88,2.88,0,0,0,.322,0,.223.223,0,0,1,.214.308.783.783,0,0,1-.552.557c-.171.061-.218.112-.126.288.255.488.038.823-.521.818-.238,0-.476-.021-.714-.037a3.7,3.7,0,0,0-2.443.752c-.156.111-.321.21-.484.311a.251.251,0,0,0-.115.363,2.018,2.018,0,0,1,.114,1.014.4.4,0,0,1-.606.359,4.28,4.28,0,0,1-.656-.486.379.379,0,0,1-.129-.221c-.028-.22-.17-.317-.341-.428a2.809,2.809,0,0,1-.78-.624,1.316,1.316,0,0,1-.4-.873,1.271,1.271,0,0,1,.2-.527.493.493,0,0,0,0-.589,2.291,2.291,0,0,1-.392-1.067.243.243,0,0,0-.009-.055c-.337-.861-.67-1.723-1.013-2.582-.289-.722-.574-1.447-.893-2.157a3.69,3.69,0,0,0-.473-.643,4.773,4.773,0,0,0-1.1-.811,1.026,1.026,0,0,1-.414-.981.385.385,0,0,1,.214-.226.346.346,0,0,0,.213-.225c.089-.194.211-.374.319-.56Zm7.976,9.3-.04-.042-.32.078c-.262.064-.413-.09-.349-.357.042-.175-.027-.256-.192-.208a.951.951,0,0,1-.786-.123.436.436,0,0,1-.222-.406c.006-.17.153-.192.274-.235a.35.35,0,0,0,.242-.45,2.062,2.062,0,0,1,0-1.035,1.637,1.637,0,0,1,1-1.018.338.338,0,0,0,.112-.057.7.7,0,0,1,.63-.212.4.4,0,0,0,.206,0c.1-.045.238-.106.259-.187.091-.344.15-.7.212-1.048a1.836,1.836,0,0,0-.146-1,.129.129,0,0,0-.2-.081,2.441,2.441,0,0,1-.338.152c-.156.055-.194.162-.2.317-.014.311-.04.623-.076.932-.05.432-.86.92-1.252.54-.1-.094-.23-.151-.328-.244-.114-.108-.193-.058-.233.047a.984.984,0,0,1-.853.569.435.435,0,0,1-.46-.143c-.147-.184-.309-.357-.468-.539-.046.025-.091.047-.132.073a.8.8,0,0,1-1.255-.332c-.071-.147-.117-.306-.169-.446-.154.024-.28.051-.408.063-.357.034-.376.067-.217.391.183.373.361.749.545,1.121.263.534.525,1.068.8,1.6.107.207.239.4.354.6.094.165.184.331.27.5a4.509,4.509,0,0,1,.315.668c.081.258.136.325.386.277.419-.079.561-.022.758.343a.763.763,0,0,0,1,.472,7.4,7.4,0,0,0,1.182-.466C44.5,76.4,44.526,76.338,44.562,76.3Zm2.11-11.187v.238q0,3.272,0,6.543a3.822,3.822,0,0,0,.038.523.832.832,0,0,0,.849.729c.391,0,.784-.006,1.175,0a1.086,1.086,0,0,1,.454.075,3.249,3.249,0,0,1,.607.416c.206.175.205.2.376,0a1.456,1.456,0,0,1,1.214-.5c.348.012.7.009,1.043,0a1.08,1.08,0,0,0,.359-.078.9.9,0,0,0,.517-.932c.011-2.282.005-4.564.005-6.846v-.174Zm3.267-3.541a1.742,1.742,0,0,0,.136-.2c.22-.483.433-.969.655-1.45.069-.148.078-.264-.087-.346-.125-.062-.251-.169-.2-.3.037-.093.2-.139.3-.2.014-.008.038,0,.056,0a7.563,7.563,0,0,0,.755-.231c.209-.086.214-.194.051-.351a.339.339,0,0,1-.124-.413c.019-.046-.024-.128-.055-.183-.047-.079-.118-.145-.163-.225a.21.21,0,0,1,.067-.319.722.722,0,0,0,.107-.111c-.262-.18-.51-.352-.759-.52a.7.7,0,0,0-.252-.144,4.694,4.694,0,0,0-.73-.038.865.865,0,0,0-.383.111,5.691,5.691,0,0,0-.5.347c-.113.08-.224.162-.345.249.265.2.346.243.076.587-.048.062-.115.152-.1.211a.516.516,0,0,1-.185.531c-.065.065-.087.148.028.2.055.028.1.083.156.1.283.082.568.157.853.234a.2.2,0,0,1,.1.363.464.464,0,0,1-.123.116c-.166.074-.156.176-.085.317q.27.539.521,1.086C49.794,61.169,49.855,61.355,49.939,61.572ZM49,66.309c.069-.064.122-.091.137-.131.081-.207.268-.283.447-.372a.587.587,0,0,1,.8.253c.161.282.134.409-.135.626a.211.211,0,0,0,0,.31.168.168,0,0,0,.16-.029,2.566,2.566,0,0,1,.762-.731.6.6,0,0,1,.665.089c.153.14.3.288.442.438a.2.2,0,0,1,.053.141,2,2,0,0,0,.134.784.459.459,0,0,1-.321.641c-.212.081-.264.087-.153.335a1.2,1.2,0,0,1,.069.26c.023.113.1.126.194.11.026,0,.051-.021.077-.024.329-.039.466.063.424.39a4.1,4.1,0,0,1-.235.887.407.407,0,0,1-.445.253c-.161-.011-.206.043-.166.191a3.451,3.451,0,0,0,.141.387c.04.1.108.114.206.065a.523.523,0,0,1,.255-.085c.187.021.3.1.165.326-.016.027-.027.057,0,.082.017.083.065.175.044.249a.716.716,0,0,1-.731.541,1.256,1.256,0,0,1-.593-.027c-.047-.022-.138.049-.211.074-.112.039-.223.081-.338.113a3.209,3.209,0,0,1-.557.136,2.927,2.927,0,0,1-.575-.03,1.469,1.469,0,0,1-.311-.075.542.542,0,0,1-.24-.118.374.374,0,0,0-.388-.1,1.279,1.279,0,0,1-1.168-.331.881.881,0,0,1-.161-.367,1.831,1.831,0,0,1-.034-.317.194.194,0,0,1,.3-.177c.165.086.233,0,.259-.125.057-.28.092-.565.136-.848l-.053-.031-.233.142c-.073.043-.146.086-.22.126a.153.153,0,0,1-.241-.122,3.59,3.59,0,0,1-.015-.587c.005-.237.015-.473.038-.709a.674.674,0,0,1,.693-.66.933.933,0,0,1,.355.136.368.368,0,0,0,.472-.128.271.271,0,0,0,0-.178c-.008-.023-.089-.031-.136-.03-.2.007-.4.027-.6.029a.378.378,0,0,1-.427-.328,4.571,4.571,0,0,0-.154-.434.374.374,0,0,1,.1-.462,4.738,4.738,0,0,1,.377-.334c.187-.133.172-.331.213-.515a1.124,1.124,0,0,1,.1-.3.181.181,0,0,1,.159-.06c.158.092.339.168.368.389A1.2,1.2,0,0,0,49,66.309Zm.428,4.621.016-.062a1.267,1.267,0,0,1-.141-.11c-.04-.041-.068-.095-.106-.139-.057-.066-.012-.224-.151-.206a.812.812,0,0,0-.272.131.486.486,0,0,0-.106.1.721.721,0,0,0-.091.786A.961.961,0,0,1,49.429,70.93Zm1.611-.7c-.124.085-.237.156-.34.238-.039.03-.085.091-.08.131a.358.358,0,0,0,.386.328.567.567,0,0,1,.13.012c.1.026.16-.014.135-.1-.054-.2-.129-.386-.2-.577C51.064,70.237,51.034,70.225,51.04,70.23Zm-.6.668c-.116-.188-.2-.337-.3-.477-.058-.084-.137-.122-.23-.029s-.14.192-.028.286a2.668,2.668,0,0,0,.387.255C50.3,70.947,50.351,70.919,50.444,70.9Zm1.681-1.208a2.547,2.547,0,0,0-.275.078.2.2,0,0,0-.084.29c.016.025.08.052.093.042.11-.086.215-.179.317-.276a.093.093,0,0,0,.013-.086C52.179,69.715,52.142,69.7,52.125,69.69Z"/></svg>