<svg xmlns="http://www.w3.org/2000/svg" viewBox="0 0 100 100"><defs><style>.a{fill:#f0f4f8;}.b{fill:#8c92a9;}</style></defs><title>ic_b-analytic2</title><circle class="a" cx="50" cy="50" r="50"/><path class="b" d="M72,54H62a1.5,1.5,0,0,1,0-3H72a1.5,1.5,0,0,1,0,3Z"/><path class="b" d="M72,49.5H62a1.5,1.5,0,0,1,0-3H72a1.5,1.5,0,0,1,0,3Z"/><path class="b" d="M68.4,58.5H62a1.5,1.5,0,0,1,0-3h6.4a1.5,1.5,0,0,1,0,3Z"/><path class="b" d="M38,54H28a1.5,1.5,0,0,1,0-3H38a1.5,1.5,0,0,1,0,3Z"/><path class="b" d="M38,49.5H28a1.5,1.5,0,0,1,0-3H38a1.5,1.5,0,0,1,0,3Z"/><path class="b" d="M34.4,58.5H28a1.5,1.5,0,0,1,0-3h6.4a1.5,1.5,0,1,1,0,3Z"/><path class="b" d="M55,54H45a1.5,1.5,0,0,1,0-3H55a1.5,1.5,0,0,1,0,3Z"/><path class="b" d="M55,49.5H45a1.5,1.5,0,0,1,0-3H55a1.5,1.5,0,0,1,0,3Z"/><path class="b" d="M51.4,58.5H45a1.5,1.5,0,0,1,0-3h6.4a1.5,1.5,0,1,1,0,3Z"/><rect class="b" x="21" y="61.5" width="58" height="3"/><path class="b" d="M73.094,32.868A6.984,6.984,0,1,0,74,36.307,7.008,7.008,0,0,0,73.094,32.868Zm-4.107,3.465,2.76-1.558a4.776,4.776,0,0,1-.043,3.189Zm1.776-3.3L68,34.594V31.42A5,5,0,0,1,70.763,33.035ZM67,41.307a5,5,0,0,1-1-9.9v4.9a1.079,1.079,0,0,0,.13.492,1.03,1.03,0,0,0,.355.366l4.192,2.515A4.946,4.946,0,0,1,67,41.307Z"/><rect class="b" x="42.5" y="38" width="3" height="5"/><rect class="b" x="46.5" y="33" width="3" height="10"/><rect class="b" x="50.5" y="36" width="3" height="7"/><rect class="b" x="54.5" y="30" width="3" height="13"/><path class="b" d="M26.5,41a1.5,1.5,0,0,1-1.061-2.561l4-4A1.5,1.5,0,0,1,31.4,34.3l2.959,2.22,5.08-5.081a1.5,1.5,0,0,1,2.122,2.122l-6,6A1.5,1.5,0,0,1,33.6,39.7l-2.959-2.22-3.08,3.081A1.5,1.5,0,0,1,26.5,41Z"/><path class="b" d="M74,23H26a6.018,6.018,0,0,0-6,6V67a6.018,6.018,0,0,0,6,6H42.206A14.268,14.268,0,0,1,38,79.921V83H62V79.921A14.268,14.268,0,0,1,57.794,73H74a6.018,6.018,0,0,0,6-6V29A6.018,6.018,0,0,0,74,23ZM57.978,80H42.022A16.86,16.86,0,0,0,45.3,73h9.4A16.86,16.86,0,0,0,57.978,80ZM77,67a3,3,0,0,1-3,3H26a3,3,0,0,1-3-3V29a3,3,0,0,1,3-3H74a3,3,0,0,1,3,3Z"/><circle class="b" cx="50" cy="67.25" r="1.5"/></svg>