<svg xmlns="http://www.w3.org/2000/svg" viewBox="0 0 100 100"><defs><style>.a{fill:#f0f4f8;}.b{fill:#8c92a9;}</style></defs><title>ic_b-analytics</title><circle class="a" cx="50" cy="50" r="50"/><path class="b" d="M77,39V63H71V39h6m1.421-3H69.579A1.485,1.485,0,0,0,68,37.357V64.643A1.485,1.485,0,0,0,69.579,66h8.842A1.485,1.485,0,0,0,80,64.643V37.357A1.485,1.485,0,0,0,78.421,36ZM61,46V63H55V46h6m1.421-3H53.579A1.548,1.548,0,0,0,52,44.505V64.5A1.548,1.548,0,0,0,53.579,66h8.842A1.548,1.548,0,0,0,64,64.5V44.505A1.548,1.548,0,0,0,62.421,43ZM45,59v4H39V59h6m1.421-3H37.579A1.479,1.479,0,0,0,36,57.339v7.322A1.479,1.479,0,0,0,37.579,66h8.842A1.479,1.479,0,0,0,48,64.661V57.339A1.479,1.479,0,0,0,46.421,56ZM29,55v8H23V55h6m1.421-3H21.579A1.514,1.514,0,0,0,20,53.429V64.571A1.514,1.514,0,0,0,21.579,66h8.842A1.514,1.514,0,0,0,32,64.571V53.429A1.514,1.514,0,0,0,30.421,52ZM28,76.5h0A1.5,1.5,0,0,0,26.5,75h-5A1.5,1.5,0,0,0,20,76.5h0A1.5,1.5,0,0,0,21.5,78h5A1.5,1.5,0,0,0,28,76.5Zm4-6h0A1.5,1.5,0,0,0,30.5,69h-9A1.5,1.5,0,0,0,20,70.5h0A1.5,1.5,0,0,0,21.5,72h9A1.5,1.5,0,0,0,32,70.5Zm12,6h0A1.5,1.5,0,0,0,42.5,75h-5A1.5,1.5,0,0,0,36,76.5h0A1.5,1.5,0,0,0,37.5,78h5A1.5,1.5,0,0,0,44,76.5Zm4-6h0A1.5,1.5,0,0,0,46.5,69h-9A1.5,1.5,0,0,0,36,70.5h0A1.5,1.5,0,0,0,37.5,72h9A1.5,1.5,0,0,0,48,70.5Zm12,6h0A1.5,1.5,0,0,0,58.5,75h-5A1.5,1.5,0,0,0,52,76.5h0A1.5,1.5,0,0,0,53.5,78h5A1.5,1.5,0,0,0,60,76.5Zm4-6h0A1.5,1.5,0,0,0,62.5,69h-9A1.5,1.5,0,0,0,52,70.5h0A1.5,1.5,0,0,0,53.5,72h9A1.5,1.5,0,0,0,64,70.5Zm12,6h0A1.5,1.5,0,0,0,74.5,75h-5A1.5,1.5,0,0,0,68,76.5h0A1.5,1.5,0,0,0,69.5,78h5A1.5,1.5,0,0,0,76,76.5Zm4-6h0A1.5,1.5,0,0,0,78.5,69h-9A1.5,1.5,0,0,0,68,70.5h0A1.5,1.5,0,0,0,69.5,72h9A1.5,1.5,0,0,0,80,70.5Z"/><path class="b" d="M74,18a5.96,5.96,0,0,0-5.917,6.952L62.714,27.3A5.991,5.991,0,0,0,52.55,33.495l-6.994,5.683a5.983,5.983,0,0,0-8.827,1.958L32,39.953a6,6,0,1,0-.727,2.911L36,44.047A6,6,0,1,0,47.45,41.505l6.994-5.683a5.974,5.974,0,0,0,9.473-5.774L69.286,27.7A6,6,0,1,0,74,18ZM26,43a3,3,0,1,1,3-3A3,3,0,0,1,26,43Zm16,4a3,3,0,1,1,3-3A3,3,0,0,1,42,47ZM58,34a3,3,0,1,1,3-3A3,3,0,0,1,58,34Zm16-7a3,3,0,1,1,3-3A3,3,0,0,1,74,27Z"/></svg>