<svg xmlns="http://www.w3.org/2000/svg" viewBox="0 0 100 100"><defs><style>.a{fill:#f0f4f8;}.b{fill:#8c92a9;}</style></defs><title>ic_b-project-order</title><circle class="a" cx="50" cy="50" r="50"/><path class="b" d="M41.5,44.975H29.629a2.3,2.3,0,0,0-1.99,1.148L20.8,57.97a1.5,1.5,0,0,1-2.6-1.5l6.84-11.846a5.309,5.309,0,0,1,4.588-2.649H41.5ZM56.83,65.792a1.5,1.5,0,0,0,1.4-1.6l-.023-.28c-.076-.874-.1-1.537-.09-2.037.594,1.16,1.486,2.706,3.214,2.4,1.556-.274,2.025-1.68,2.239-2.721a2.2,2.2,0,0,0,2.015.756,2.833,2.833,0,0,0,1.586-1c.023-.024.045-.049.068-.075.044.006.088.014.124.02a3.615,3.615,0,0,0,1.292.028,1.5,1.5,0,1,0-.523-2.953c-.037,0-.188-.021-.281-.035a3.587,3.587,0,0,0-1.292-.029,2.46,2.46,0,0,0-1.265.675,2.714,2.714,0,0,0-2.611-1.206c-1.468.259-1.785,1.706-1.952,2.66l-.047-.092c-.59-1.164-1.481-2.918-3.3-2.6-2.684.474-2.331,4.524-2.162,6.472l.019.22a1.5,1.5,0,0,0,1.5,1.4C56.762,65.8,56.8,65.794,56.83,65.792ZM52.5,32.5h16a1.5,1.5,0,0,0,0-3h-16a1.5,1.5,0,0,0,0,3Zm0,7.5h16a1.5,1.5,0,0,0,0-3h-16a1.5,1.5,0,0,0,0,3Zm9,15a1.5,1.5,0,0,0,0-3H54.856a6.843,6.843,0,0,1-2.588,2.684l-.347.2A1.507,1.507,0,0,0,52.5,55ZM74.546,21H46.454A3.464,3.464,0,0,0,43,24.454v19.78l2.425-1.4c.188-.109.38-.206.575-.3V24.454A.466.466,0,0,1,46.454,24H74.546a.466.466,0,0,1,.454.454V58.521a1.158,1.158,0,0,1-.342.826l-8.311,8.311a1.158,1.158,0,0,1-.826.342H46.454A.466.466,0,0,1,46,67.546V58.3l-3,1.732v7.511A3.464,3.464,0,0,0,46.454,71H65.521a4.164,4.164,0,0,0,2.947-1.221l8.311-8.31A4.168,4.168,0,0,0,78,58.521V24.454A3.464,3.464,0,0,0,74.546,21ZM70,46a1.5,1.5,0,0,0-1.5-1.5H54.192a6.48,6.48,0,0,1,1.365,3H68.5A1.5,1.5,0,0,0,70,46ZM40.3,61.6l-2.6,1.5a4.413,4.413,0,0,0,3.791,2.146H41.5v-3A1.409,1.409,0,0,1,40.3,61.6ZM26.737,80.685A24.291,24.291,0,0,0,36.21,62.224l15.308-8.839a5.342,5.342,0,0,0-5.343-9.252L33.667,51.354a1.5,1.5,0,1,0,1.5,2.6L47.675,46.73a2.342,2.342,0,0,1,2.342,4.057l-16.792,9.7v.867A21.319,21.319,0,0,1,24.9,78.314a1.5,1.5,0,1,0,1.837,2.371ZM33.5,29.454A.466.466,0,0,1,33.954,29H41.5V26H33.954A3.464,3.464,0,0,0,30.5,29.454V40.475h3Zm8,8.046v-3H40a1.5,1.5,0,0,0,0,3Zm12.505,35-.158.158a1.158,1.158,0,0,1-.826.342H34.961a25.875,25.875,0,0,1-1.712,2.926,3.413,3.413,0,0,0,.7.074H53.021a4.164,4.164,0,0,0,2.947-1.221l2.28-2.279Z"/></svg>