<svg xmlns="http://www.w3.org/2000/svg" viewBox="0 0 100 100"><defs><style>.a{fill:#f0f4f8;}.b{fill:#8c92a9;}</style></defs><title>ic_b-monitoring</title><circle class="a" cx="50" cy="50" r="50"/><path class="b" d="M33.79,54a8.825,8.825,0,0,1-3.434-16.95,8.89,8.89,0,0,1,6.868,0,1.5,1.5,0,0,1-1.168,2.764,5.867,5.867,0,0,0-4.532,0,5.826,5.826,0,0,0,0,10.728,5.874,5.874,0,0,0,4.531,0,5.829,5.829,0,0,0,3.1-7.63,1.5,1.5,0,0,1,2.764-1.168A8.822,8.822,0,0,1,33.79,54Z"/><path class="b" d="M66.21,54a8.825,8.825,0,0,1-3.434-16.95,8.89,8.89,0,0,1,6.868,0,1.5,1.5,0,0,1-1.168,2.764,5.867,5.867,0,0,0-4.532,0,5.826,5.826,0,0,0,0,10.728,5.874,5.874,0,0,0,4.531,0,5.829,5.829,0,0,0,3.1-7.63,1.5,1.5,0,1,1,2.764-1.168A8.822,8.822,0,0,1,66.21,54Z"/><path class="b" d="M78.657,39.245c-.36-.751-6.51-10.909-9.136-15.241l-.091-.149a9.128,9.128,0,0,0-8.713-4.334A4.212,4.212,0,0,0,56.7,17a4.308,4.308,0,0,0-4.285,4.515V28.63H47.581V21.515A4.308,4.308,0,0,0,43.3,17a4.212,4.212,0,0,0-4.013,2.521,9.128,9.128,0,0,0-8.713,4.334L30.479,24c-2.626,4.332-8.776,14.49-9.136,15.241A13.636,13.636,0,0,0,20,45.177a13.791,13.791,0,0,0,27.581,0V43.89h4.838v1.287a13.791,13.791,0,0,0,27.581,0A13.636,13.636,0,0,0,78.657,39.245ZM33.79,55.968A10.792,10.792,0,1,1,44.582,45.177,10.8,10.8,0,0,1,33.79,55.968ZM44.582,36.6a13.791,13.791,0,0,0-15.509-4.381l.187-.311c1.433-2.405,3.816-6.4,3.867-6.482a6.186,6.186,0,0,1,11.455,3.24Zm0-14.715a9.223,9.223,0,0,0-2.193-1.488,1.09,1.09,0,0,1,.9-.522c.84,0,1.293.846,1.293,1.642Zm7.837,19.009H47.581V39.374h4.838Zm0-4.516H47.581V31.629h4.838Zm3-14.861c0-.8.453-1.642,1.293-1.642a1.09,1.09,0,0,1,.9.522,9.223,9.223,0,0,0-2.193,1.488Zm0,7.149a6.186,6.186,0,0,1,11.455-3.24c.051.083,2.434,4.077,3.867,6.482l.187.311A13.791,13.791,0,0,0,55.418,36.6ZM66.21,55.968A10.792,10.792,0,1,1,77,45.177,10.8,10.8,0,0,1,66.21,55.968Z"/><path class="b" d="M68.5,61v7h-5V65h-8V59h-11v8h-5V64h-11v3h-8V77h59V61Zm-40,13h-5V70h5Zm8,0h-5V67h5Zm8,0h-5V70h5Zm8,0h-5V62h5V74Zm8,0h-5V68h5Zm8,0h-5V71h5Zm8,0h-5V64h5Z"/></svg>