<svg xmlns="http://www.w3.org/2000/svg" viewBox="0 0 15 15"><defs><style>.a{fill:#8c92a9;}</style></defs><title>ic_sm-monitoring</title><path class="a" d="M14.651,5.407h0c-.067-.139-.792-1.349-2.155-3.6l-.023-.037A2.485,2.485,0,0,0,10.349.58h-.008A1.389,1.389,0,0,0,9.2,0,1.351,1.351,0,0,0,7.842,1.408v.846H7.158V1.408A1.351,1.351,0,0,0,5.8,0,1.389,1.389,0,0,0,4.659.58H4.651A2.488,2.488,0,0,0,2.525,1.773L2.5,1.809C1.141,4.057.416,5.267.349,5.407A3.528,3.528,0,0,0,0,6.947,3.579,3.579,0,0,0,7.158,7h.684A3.579,3.579,0,0,0,15,6.947,3.528,3.528,0,0,0,14.651,5.407Zm-3.23,3.714A2.175,2.175,0,1,1,13.6,6.947,2.177,2.177,0,0,1,11.421,9.121Zm-7.842,0A2.175,2.175,0,1,1,5.754,6.947,2.177,2.177,0,0,1,3.579,9.121ZM1.613,15H.244V12.767H1.613ZM3.8,15H2.434V11.929H3.8Zm2.191,0H4.625V12.767H5.994Zm2.191,0H6.815V10.533h1.37V15Zm2.19,0H9.006V12.208h1.369Zm2.191,0H11.2V13.046h1.369Zm2.19,0H13.387V11.092h1.369Z"/></svg>