<svg xmlns="http://www.w3.org/2000/svg" viewBox="0 0 15 15"><defs><style>.a{fill:#8c92a9;}</style></defs><title>ic_sm-planning</title><path class="a" d="M11.949,12.923H15v.895A1.182,1.182,0,0,1,13.818,15h-.687a1.182,1.182,0,0,1-1.182-1.182Zm2.825-8.789a3.945,3.945,0,0,1-1.3.235,3.951,3.951,0,0,1-1.3-.235l-.17.341a.518.518,0,0,0-.056.235v7.333H15V4.71a.53.53,0,0,0-.055-.235Zm-.451-.9-.487-.975a.4.4,0,0,0-.722,0l-.488.975a2.981,2.981,0,0,0,.849.137A2.945,2.945,0,0,0,14.323,3.232ZM9.716,2.055H8.51v-.49a.4.4,0,0,0-.4-.4H7.065a1.679,1.679,0,0,0-3.2,0H2.822a.4.4,0,0,0-.4.4v.49H1.216A1.219,1.219,0,0,0,0,3.271V13.784A1.219,1.219,0,0,0,1.216,15h8.5a1.219,1.219,0,0,0,1.216-1.216V3.271A1.219,1.219,0,0,0,9.716,2.055Zm-7,10.233a.8.8,0,1,1,.8-.8A.8.8,0,0,1,2.716,12.288Zm0-3.126a.8.8,0,1,1,.8-.8A.8.8,0,0,1,2.716,9.162Zm0-3.126a.8.8,0,1,1,.8-.8A.8.8,0,0,1,2.716,6.036Zm5.7,6.119H5.2a.667.667,0,0,1,0-1.334H8.416a.667.667,0,0,1,0,1.334Zm0-3.126H5.2A.667.667,0,1,1,5.2,7.7H8.416a.667.667,0,1,1,0,1.334Zm0-3.126H5.2a.667.667,0,0,1,0-1.334H8.416a.667.667,0,0,1,0,1.334Z"/></svg>