<svg xmlns="http://www.w3.org/2000/svg" viewBox="0 0 15 15"><defs><style>.a{fill:#8c92a9;}</style></defs><title>ic_sm-results</title><path class="a" d="M14.249,0h-6.8A.751.751,0,0,0,6.7.751V2.277h.857a1.678,1.678,0,0,1,1.171.475A2.545,2.545,0,0,1,10.58,1.618v2.53a.188.188,0,0,0,.005.033.2.2,0,0,0,0,.035c0,.011.009.021.013.032a.305.305,0,0,0,.013.032c.006.01.014.018.02.027a.193.193,0,0,0,.022.028c.008.008.018.014.027.022a.265.265,0,0,0,.026.021l2.167,1.3a2.536,2.536,0,0,1-3.636.441V8.17H13.27a.4.4,0,0,1,0,.8H9.241v.8h2.286a.4.4,0,0,1,0,.8H9.241v1.206h2.866a1.168,1.168,0,0,0,.826-.342l1.725-1.726A1.167,1.167,0,0,0,15,8.893V.751A.751.751,0,0,0,14.249,0ZM11.116,1.618a2.546,2.546,0,0,1,1.8,1.053l-.483.273-1.318.745Zm2.037,3.6L11.38,4.155l1.8-1.018a2.518,2.518,0,0,1-.029,2.082Zm-5.6-2.005H.751A.751.751,0,0,0,0,3.965V14.249A.751.751,0,0,0,.751,15H5.41a1.168,1.168,0,0,0,.826-.342l1.725-1.725a1.165,1.165,0,0,0,.343-.826V3.965A.751.751,0,0,0,7.553,3.214Zm-2.2,2.925H6.963V8.705H5.355ZM3.348,4.812H4.955V8.705H3.348ZM1.341,6.95H2.948V8.705H1.341ZM4.83,13.8H1.73a.4.4,0,0,1,0-.8h3.1a.4.4,0,0,1,0,.8Zm1.744-1.607H1.73a.4.4,0,0,1,0-.8H6.574a.4.4,0,0,1,0,.8Zm0-1.608H1.73a.4.4,0,0,1,0-.8H6.574a.4.4,0,0,1,0,.8Z"/></svg>