<svg xmlns="http://www.w3.org/2000/svg" viewBox="0 0 15 15"><defs><style>.a{fill:#8c92a9;}</style></defs><title>ic_sm-project-order</title><path class="a" d="M14.5,0H7.3a.5.5,0,0,0-.5.5V5.2l.365-.211a2.01,2.01,0,0,1,2.5.393h3.548a.385.385,0,1,1,0,.769H10.088a1.946,1.946,0,0,1,0,1.154H10.9a.385.385,0,1,1,0,.769H9.655a1.983,1.983,0,0,1-.484.4L6.8,9.846v1.7a.5.5,0,0,0,.5.5h4.889a.68.68,0,0,0,.484-.2L14.8,9.72a.68.68,0,0,0,.2-.484V.5A.5.5,0,0,0,14.5,0ZM12.987,9.945a.9.9,0,0,1-.331-.007l-.032-.005-.017.019a.719.719,0,0,1-.407.257.568.568,0,0,1-.517-.194.768.768,0,0,1-.574.7c-.443.078-.671-.319-.824-.616,0,.128,0,.3.023.522l.006.072a.386.386,0,0,1-.358.41H9.93a.385.385,0,0,1-.383-.359l-.005-.056c-.043-.5-.134-1.538.554-1.66.468-.08.7.37.847.668l.013.024c.042-.245.124-.616.5-.682a.692.692,0,0,1,.669.309.63.63,0,0,1,.325-.173.924.924,0,0,1,.331.007c.024,0,.063.009.072.009a.384.384,0,1,1,.134.757Zm.218-5.714H8.59a.385.385,0,1,1,0-.769h4.615a.385.385,0,1,1,0,.769Zm0-1.923H8.59a.385.385,0,0,1,0-.77h4.615a.385.385,0,0,1,0,.77ZM2.472,6.586.718,9.624a.385.385,0,1,1-.666-.385L1.805,6.2a1.363,1.363,0,0,1,1.177-.679H6.24l-1.332.769H2.982A.59.59,0,0,0,2.472,6.586ZM2.261,15a.385.385,0,0,1-.235-.689A5.467,5.467,0,0,0,4.16,9.961V9.739L8.466,7.253a.6.6,0,0,0-.6-1.04L4.658,8.065A.384.384,0,1,1,4.274,7.4L7.481,5.547a1.37,1.37,0,0,1,1.37,2.372L4.926,10.186A6.23,6.23,0,0,1,2.5,14.919.379.379,0,0,1,2.261,15Z"/></svg>