<svg xmlns="http://www.w3.org/2000/svg" viewBox="0 0 15 15"><defs><style>.a{fill:#8c92a9;}</style></defs><title>ic_sm-knowledge</title><path class="a" d="M12.836,11.283a15.972,15.972,0,0,1,2.066.4l-.383,1.245a16.1,16.1,0,0,0-1.957-.393,7.921,7.921,0,0,0-4.714.573L7.865,12A8.089,8.089,0,0,1,12.836,11.283ZM7.841,13.56l-.015.973a7.4,7.4,0,0,1,4.311-.051A15.972,15.972,0,0,1,13.881,15l.316-1.024a15.828,15.828,0,0,0-1.831-.541A7.467,7.467,0,0,0,7.841,13.56ZM14.093.023,15,10.592a18.845,18.845,0,0,0-2.2-.227,8.315,8.315,0,0,0-4.925,1.083l-.04-9.36A6.156,6.156,0,0,1,11.99.068,13.158,13.158,0,0,1,14.093.023ZM13.7,8.059a.562.562,0,0,0-.526-.557,7.481,7.481,0,0,0-4.12.694.462.462,0,0,0-.168.594.429.429,0,0,0,.365.264.351.351,0,0,0,.182-.041,6.629,6.629,0,0,1,3.71-.494A.486.486,0,0,0,13.7,8.059Zm-.145-1.985a.518.518,0,0,0-.512-.514,7.6,7.6,0,0,0-4.022.821.45.45,0,0,0-.165.576.4.4,0,0,0,.357.239.372.372,0,0,0,.178-.046,6.689,6.689,0,0,1,3.621-.615A.494.494,0,0,0,13.558,6.074ZM13.42,4.179a.476.476,0,0,0-.5-.472,7.712,7.712,0,0,0-3.93.935.438.438,0,0,0-.161.559.373.373,0,0,0,.348.215.378.378,0,0,0,.175-.05,6.784,6.784,0,0,1,3.536-.725A.5.5,0,0,0,13.42,4.179Zm-.133-1.81a.441.441,0,0,0-.485-.435A7.859,7.859,0,0,0,8.961,2.975a.425.425,0,0,0-.157.541.349.349,0,0,0,.341.195.409.409,0,0,0,.17-.055,6.9,6.9,0,0,1,3.455-.824A.511.511,0,0,0,13.287,2.369ZM2.164,11.283a15.972,15.972,0,0,0-2.066.4l.383,1.245a16.1,16.1,0,0,1,1.957-.393,7.921,7.921,0,0,1,4.714.573L7.135,12A8.089,8.089,0,0,0,2.164,11.283Zm.47,2.152A15.828,15.828,0,0,0,.8,13.976L1.119,15a15.972,15.972,0,0,1,1.744-.518,7.4,7.4,0,0,1,4.311.051l-.015-.973A7.467,7.467,0,0,0,2.634,13.435ZM3.01.068a6.156,6.156,0,0,1,4.151,2.02l-.04,9.36A8.315,8.315,0,0,0,2.2,10.365a18.845,18.845,0,0,0-2.2.227L.907.023A13.158,13.158,0,0,1,3.01.068ZM1.854,8.519a6.629,6.629,0,0,1,3.71.494.351.351,0,0,0,.182.041.429.429,0,0,0,.365-.264A.462.462,0,0,0,5.943,8.2,7.481,7.481,0,0,0,1.823,7.5a.562.562,0,0,0-.526.557A.486.486,0,0,0,1.854,8.519Zm.131-1.984a6.689,6.689,0,0,1,3.621.615.372.372,0,0,0,.178.046.4.4,0,0,0,.357-.239.45.45,0,0,0-.165-.576A7.6,7.6,0,0,0,1.954,5.56a.518.518,0,0,0-.512.514A.494.494,0,0,0,1.985,6.535ZM2.11,4.641a6.784,6.784,0,0,1,3.536.725.378.378,0,0,0,.175.05A.373.373,0,0,0,6.169,5.2a.438.438,0,0,0-.161-.559,7.712,7.712,0,0,0-3.93-.935.476.476,0,0,0-.5.472A.5.5,0,0,0,2.11,4.641Zm.12-1.809a6.9,6.9,0,0,1,3.455.824.409.409,0,0,0,.17.055A.349.349,0,0,0,6.2,3.516a.425.425,0,0,0-.157-.541A7.859,7.859,0,0,0,2.2,1.934a.441.441,0,0,0-.485.435A.511.511,0,0,0,2.23,2.832Z"/></svg>