<svg xmlns="http://www.w3.org/2000/svg" viewBox="0 0 15 15"><defs><style>.a{fill:#8c92a9;}</style></defs><title>ic_sm-persarea</title><path class="a" d="M4.639,0A2.883,2.883,0,1,0,7.523,2.883,2.883,2.883,0,0,0,4.639,0ZM13.5,3H11.784a1.5,1.5,0,0,1-1.5-1.5h0a1.5,1.5,0,0,1,1.5-1.5H13.5A1.5,1.5,0,0,1,15,1.5h0A1.5,1.5,0,0,1,13.5,3Zm0,8H11.784a1.5,1.5,0,0,1-1.5-1.5h0a1.5,1.5,0,0,1,1.5-1.5H13.5A1.5,1.5,0,0,1,15,9.5h0A1.5,1.5,0,0,1,13.5,11Zm0-4H11.784a1.5,1.5,0,0,1-1.5-1.5h0a1.5,1.5,0,0,1,1.5-1.5H13.5A1.5,1.5,0,0,1,15,5.5h0A1.5,1.5,0,0,1,13.5,7Zm0,8H11.784a1.5,1.5,0,0,1-1.5-1.5h0a1.5,1.5,0,0,1,1.5-1.5H13.5A1.5,1.5,0,0,1,15,13.5h0A1.5,1.5,0,0,1,13.5,15ZM7.359,6.157a4.195,4.195,0,0,1-5.439,0L.732,6.644A1.18,1.18,0,0,0,0,7.736V9.621A1.378,1.378,0,0,0,1.379,11H7.9A1.379,1.379,0,0,0,9.279,9.621V7.736a1.182,1.182,0,0,0-.732-1.092Z"/></svg>