<svg xmlns="http://www.w3.org/2000/svg" viewBox="0 0 15 15"><defs><style>.a{fill:#8c92a9;}</style></defs><title>ic_sm-analytics</title><path class="a" d="M15,5.339v9.322a.372.372,0,0,1-.395.339H12.4A.372.372,0,0,1,12,14.661V5.339A.372.372,0,0,1,12.4,5h2.21A.372.372,0,0,1,15,5.339ZM10.605,6.75H8.4A.387.387,0,0,0,8,7.126v7.5A.387.387,0,0,0,8.4,15h2.21A.387.387,0,0,0,11,14.624v-7.5A.387.387,0,0,0,10.605,6.75Zm-4,3.25H4.395A.37.37,0,0,0,4,10.335v4.33A.37.37,0,0,0,4.395,15h2.21A.37.37,0,0,0,7,14.665v-4.33A.37.37,0,0,0,6.605,10Zm-4-1H.4A.379.379,0,0,0,0,9.357v5.286A.379.379,0,0,0,.4,15h2.21a.379.379,0,0,0,.4-.357V9.357A.379.379,0,0,0,2.605,9ZM8.837,4.594A1.5,1.5,0,0,0,11,3.277l1.5-.659A1.5,1.5,0,1,0,12,1.473l-1.5.659A1.5,1.5,0,0,0,8.049,3.624L6.163,5.156a1.494,1.494,0,0,0-1.833.407L2.973,5.224a1.5,1.5,0,1,0-.3,1.213l1.357.339a1.5,1.5,0,1,0,2.924-.65ZM13.5,1a.5.5,0,1,1-.5.5A.5.5,0,0,1,13.5,1Zm-4,1.75a.5.5,0,1,1-.5.5A.5.5,0,0,1,9.5,2.75ZM1.5,6A.5.5,0,1,1,2,5.5.5.5,0,0,1,1.5,6Zm4,1A.5.5,0,1,1,6,6.5.5.5,0,0,1,5.5,7Z"/></svg>