<svg xmlns="http://www.w3.org/2000/svg" viewBox="0 0 15 15"><defs><style>.a{fill:#8c92a9;}</style></defs><title>ic_sm-experts</title><path class="a" d="M10.946,3.239v1.5L12.3,3.406h.449A1.716,1.716,0,0,0,14.474,1.7,1.713,1.713,0,0,0,12.749,0H11.686A1.715,1.715,0,0,0,9.961,1.708,1.705,1.705,0,0,0,10.946,3.239ZM6.228,4.915v1.5L7.583,5.081h.448a1.7,1.7,0,1,0,0-3.406H6.969a1.7,1.7,0,0,0-.741,3.24ZM1.51,6.59v1.5L2.865,6.757h.449a1.7,1.7,0,1,0,0-3.406H2.251A1.7,1.7,0,0,0,1.51,6.59Zm8.772,4.884v1.4a.411.411,0,0,1-.363.446H6.314v-.176a1.428,1.428,0,0,0-.747-1.32h0a9.092,9.092,0,0,0-.848-.343v-.011a.706.706,0,0,1,.326-.646A12.7,12.7,0,0,1,6.5,10.285l.027-.447a3.056,3.056,0,0,1-.333-.578.5.5,0,0,1-.263-.445V8.344A.531.531,0,0,1,6.037,8,1.4,1.4,0,0,1,7.5,6.59,1.4,1.4,0,0,1,8.963,8.005a.526.526,0,0,1,.112.339v.471a.5.5,0,0,1-.263.445,3.069,3.069,0,0,1-.334.578l.027.447a12.7,12.7,0,0,1,1.451.543A.706.706,0,0,1,10.282,11.474ZM15,9.8v1.4a.411.411,0,0,1-.363.446H11.032v-.175a1.428,1.428,0,0,0-.747-1.32h0a9.009,9.009,0,0,0-.849-.343V9.8a.71.71,0,0,1,.327-.647,12.9,12.9,0,0,1,1.451-.542l.027-.447a3.072,3.072,0,0,1-.334-.579.493.493,0,0,1-.263-.444V6.669a.531.531,0,0,1,.112-.34,1.4,1.4,0,0,1,1.463-1.415,1.4,1.4,0,0,1,1.463,1.415.531.531,0,0,1,.111.34V7.14a.494.494,0,0,1-.263.444,3.059,3.059,0,0,1-.333.579l.027.447a12.8,12.8,0,0,1,1.45.542A.708.708,0,0,1,15,9.8Zm-9.435,3.35v1.405A.412.412,0,0,1,5.2,15H.363A.412.412,0,0,1,0,14.554V13.149A.706.706,0,0,1,.327,12.5a12.8,12.8,0,0,1,1.45-.542l.027-.448a3.081,3.081,0,0,1-.333-.578.494.494,0,0,1-.263-.444V10.02a.531.531,0,0,1,.111-.34A1.4,1.4,0,0,1,2.782,8.265,1.4,1.4,0,0,1,4.246,9.68a.531.531,0,0,1,.111.34v.471a.494.494,0,0,1-.263.444,3.038,3.038,0,0,1-.334.578l.027.448a12.9,12.9,0,0,1,1.451.542A.708.708,0,0,1,5.565,13.149Z"/></svg>