<svg xmlns="http://www.w3.org/2000/svg" viewBox="0 0 100 100">
  <defs>
    <style>
      .cls-1, .cls-3 {
        fill: #f1f5fa;
      }

      .cls-2 {
        fill: #8c92a9;
      }

      .cls-3 {
        stroke: #f1f5fa;
        stroke-miterlimit: 10;
        stroke-width: 5px;
      }
    </style>
  </defs>
  <title>icon-db</title>
  <g id="Layer_2" data-name="Layer 2">
    <g id="готовые">
      <g id="icon-db">
        <circle id="bg" class="cls-1" cx="50" cy="50" r="50"/>
        <g>
          <g>
            <g>
              <path class="cls-1" d="M65.75,54.5c-7.514,0-12.75-3-12.75-5.7V43.1H78.5v5.7C78.5,51.5,73.264,54.5,65.75,54.5Z"/>
              <path class="cls-2" d="M77,44.6v4.2c0,1.481-4.271,4.2-11.25,4.2S54.5,50.281,54.5,48.8V44.6H77m3-3H51.5v7.2c0,3.976,6.38,7.2,14.25,7.2S80,52.776,80,48.8V41.6Z"/>
            </g>
            <g>
              <path class="cls-1" d="M65.75,47.3c-7.514,0-12.75-3-12.75-5.7V35.9H78.5v5.7C78.5,44.3,73.264,47.3,65.75,47.3Z"/>
              <path class="cls-2" d="M77,37.4v4.2c0,1.481-4.271,4.2-11.25,4.2S54.5,43.081,54.5,41.6V37.4H77m3-3H51.5v7.2c0,3.976,6.38,7.2,14.25,7.2S80,45.576,80,41.6V34.4Z"/>
            </g>
            <g>
              <path class="cls-1" d="M65.75,40.1c-7.514,0-12.75-3-12.75-5.7,0-2.315,4.647-3.643,12.75-3.643S78.5,32.085,78.5,34.4C78.5,37.1,73.264,40.1,65.75,40.1Z"/>
              <path class="cls-2" d="M65.75,32.257C76.162,32.257,77,34.379,77,34.4c0,1.481-4.271,4.2-11.25,4.2S54.5,35.881,54.5,34.4c0-.021.838-2.143,11.25-2.143m0-3c-7.87,0-14.25,1.167-14.25,5.143s6.38,7.2,14.25,7.2S80,38.376,80,34.4s-6.38-5.143-14.25-5.143Z"/>
            </g>
            <g>
              <path class="cls-1" d="M65.75,40.1c-7.514,0-12.75-3-12.75-5.7V28.7H78.5v5.7C78.5,37.1,73.264,40.1,65.75,40.1Z"/>
              <path class="cls-2" d="M77,30.2v4.2c0,1.481-4.271,4.2-11.25,4.2S54.5,35.881,54.5,34.4V30.2H77m3-3H51.5v7.2c0,3.976,6.38,7.2,14.25,7.2S80,38.376,80,34.4V27.2Z"/>
            </g>
            <g>
              <path class="cls-1" d="M65.75,32.9c-7.514,0-12.75-3-12.75-5.7s5.236-5.7,12.75-5.7,12.75,3,12.75,5.7S73.264,32.9,65.75,32.9Z"/>
              <path class="cls-2" d="M65.75,23C72.729,23,77,25.719,77,27.2s-4.271,4.2-11.25,4.2S54.5,28.681,54.5,27.2,58.771,23,65.75,23m0-3c-7.87,0-14.25,3.224-14.25,7.2s6.38,7.2,14.25,7.2S80,31.176,80,27.2,73.62,20,65.75,20Z"/>
            </g>
          </g>
          <g>
            <path class="cls-3" d="M35.75,53.6v7.2c0,3.976,6.38,7.2,14.25,7.2s14.25-3.224,14.25-7.2V53.6Z"/>
            <path class="cls-3" d="M35.75,46.4v7.2c0,3.976,6.38,7.2,14.25,7.2s14.25-3.224,14.25-7.2V46.4Z"/>
            <path class="cls-3" d="M64.25,46.4c0,3.976-6.38,7.2-14.25,7.2s-14.25-3.224-14.25-7.2S42.13,41.257,50,41.257,64.25,42.424,64.25,46.4Z"/>
            <path class="cls-3" d="M35.75,39.2v7.2c0,3.976,6.38,7.2,14.25,7.2s14.25-3.224,14.25-7.2V39.2Z"/>
            <ellipse class="cls-3" cx="50" cy="39.2" rx="14.25" ry="7.2"/>
          </g>
          <g>
            <g>
              <path class="cls-1" d="M50,66.5c-7.514,0-12.75-3-12.75-5.7V55.1h25.5v5.7C62.75,63.5,57.514,66.5,50,66.5Z"/>
              <path class="cls-2" d="M61.25,56.6v4.2c0,1.481-4.271,4.2-11.25,4.2s-11.25-2.719-11.25-4.2V56.6h22.5m3-3H35.75v7.2c0,3.976,6.38,7.2,14.25,7.2s14.25-3.224,14.25-7.2V53.6Z"/>
            </g>
            <g>
              <path class="cls-1" d="M50,59.3c-7.514,0-12.75-3-12.75-5.7V47.9h25.5v5.7C62.75,56.3,57.514,59.3,50,59.3Z"/>
              <path class="cls-2" d="M61.25,49.4v4.2c0,1.481-4.271,4.2-11.25,4.2s-11.25-2.719-11.25-4.2V49.4h22.5m3-3H35.75v7.2c0,3.976,6.38,7.2,14.25,7.2s14.25-3.224,14.25-7.2V46.4Z"/>
            </g>
            <g>
              <path class="cls-1" d="M50,52.1c-7.514,0-12.75-3-12.75-5.7,0-2.315,4.647-3.643,12.75-3.643S62.75,44.085,62.75,46.4C62.75,49.1,57.514,52.1,50,52.1Z"/>
              <path class="cls-2" d="M50,44.257c10.412,0,11.25,2.122,11.25,2.143,0,1.481-4.271,4.2-11.25,4.2s-11.25-2.719-11.25-4.2c0-.021.838-2.143,11.25-2.143m0-3c-7.87,0-14.25,1.167-14.25,5.143S42.13,53.6,50,53.6s14.25-3.224,14.25-7.2S57.87,41.257,50,41.257Z"/>
            </g>
            <g>
              <path class="cls-1" d="M50,52.1c-7.514,0-12.75-3-12.75-5.7V40.7h25.5v5.7C62.75,49.1,57.514,52.1,50,52.1Z"/>
              <path class="cls-2" d="M61.25,42.2v4.2c0,1.481-4.271,4.2-11.25,4.2s-11.25-2.719-11.25-4.2V42.2h22.5m3-3H35.75v7.2c0,3.976,6.38,7.2,14.25,7.2s14.25-3.224,14.25-7.2V39.2Z"/>
            </g>
            <g>
              <path class="cls-1" d="M50,44.9c-7.514,0-12.75-3-12.75-5.7S42.486,33.5,50,33.5s12.75,3,12.75,5.7S57.514,44.9,50,44.9Z"/>
              <path class="cls-2" d="M50,35c6.979,0,11.25,2.719,11.25,4.2S56.979,43.4,50,43.4s-11.25-2.719-11.25-4.2S43.021,35,50,35m0-3c-7.87,0-14.25,3.224-14.25,7.2S42.13,46.4,50,46.4s14.25-3.224,14.25-7.2S57.87,32,50,32Z"/>
            </g>
          </g>
          <g>
            <path class="cls-3" d="M20,65.6v7.2c0,3.976,6.38,7.2,14.25,7.2S48.5,76.776,48.5,72.8V65.6Z"/>
            <path class="cls-3" d="M20,58.4v7.2c0,3.976,6.38,7.2,14.25,7.2S48.5,69.576,48.5,65.6V58.4Z"/>
            <path class="cls-3" d="M48.5,58.4c0,3.976-6.38,7.2-14.25,7.2S20,62.376,20,58.4s6.38-5.143,14.25-5.143S48.5,54.424,48.5,58.4Z"/>
            <path class="cls-3" d="M20,51.2v7.2c0,3.976,6.38,7.2,14.25,7.2S48.5,62.376,48.5,58.4V51.2Z"/>
            <ellipse class="cls-3" cx="34.25" cy="51.2" rx="14.25" ry="7.2"/>
          </g>
          <g>
            <g>
              <path class="cls-1" d="M34.25,78.5c-7.514,0-12.75-3-12.75-5.7V67.1H47v5.7C47,75.5,41.764,78.5,34.25,78.5Z"/>
              <path class="cls-2" d="M45.5,68.6v4.2c0,1.481-4.271,4.2-11.25,4.2S23,74.281,23,72.8V68.6H45.5m3-3H20v7.2c0,3.976,6.38,7.2,14.25,7.2S48.5,76.776,48.5,72.8V65.6Z"/>
            </g>
            <g>
              <path class="cls-1" d="M34.25,71.3c-7.514,0-12.75-3-12.75-5.7V59.9H47v5.7C47,68.3,41.764,71.3,34.25,71.3Z"/>
              <path class="cls-2" d="M45.5,61.4v4.2c0,1.481-4.271,4.2-11.25,4.2S23,67.081,23,65.6V61.4H45.5m3-3H20v7.2c0,3.976,6.38,7.2,14.25,7.2S48.5,69.576,48.5,65.6V58.4Z"/>
            </g>
            <g>
              <path class="cls-1" d="M34.25,64.1c-7.514,0-12.75-3-12.75-5.7,0-2.315,4.647-3.643,12.75-3.643S47,56.085,47,58.4C47,61.1,41.764,64.1,34.25,64.1Z"/>
              <path class="cls-2" d="M34.25,56.257c10.412,0,11.25,2.122,11.25,2.143,0,1.481-4.271,4.2-11.25,4.2S23,59.881,23,58.4c0-.021.838-2.143,11.25-2.143m0-3C26.38,53.257,20,54.424,20,58.4s6.38,7.2,14.25,7.2S48.5,62.376,48.5,58.4s-6.38-5.143-14.25-5.143Z"/>
            </g>
            <g>
              <path class="cls-1" d="M34.25,64.1c-7.514,0-12.75-3-12.75-5.7V52.7H47v5.7C47,61.1,41.764,64.1,34.25,64.1Z"/>
              <path class="cls-2" d="M45.5,54.2v4.2c0,1.481-4.271,4.2-11.25,4.2S23,59.881,23,58.4V54.2H45.5m3-3H20v7.2c0,3.976,6.38,7.2,14.25,7.2S48.5,62.376,48.5,58.4V51.2Z"/>
            </g>
            <g>
              <path class="cls-1" d="M34.25,56.9c-7.514,0-12.75-3-12.75-5.7s5.236-5.7,12.75-5.7S47,48.5,47,51.2,41.764,56.9,34.25,56.9Z"/>
              <path class="cls-2" d="M34.25,47c6.979,0,11.25,2.719,11.25,4.2s-4.271,4.2-11.25,4.2S23,52.681,23,51.2,27.271,47,34.25,47m0-3C26.38,44,20,47.224,20,51.2s6.38,7.2,14.25,7.2S48.5,55.176,48.5,51.2,42.12,44,34.25,44Z"/>
            </g>
          </g>
        </g>
      </g>
    </g>
  </g>
</svg>
