<svg xmlns="http://www.w3.org/2000/svg" viewBox="0 0 100 100">
  <defs>
    <style>
      .cls-1 {
        fill: #f1f5fa;
      }

      .cls-2 {
        fill: #8b91a9;
      }
    </style>
  </defs>
  <title>icon-table</title>
  <g id="Layer_2" data-name="Layer 2">
    <g id="готовые">
      <g id="icon-table">
        <circle id="bg" class="cls-1" cx="50" cy="50" r="50"/>
        <g>
          <path class="cls-2" d="M74,20H26a6,6,0,0,0-6,6V74a6,6,0,0,0,6,6H74a6,6,0,0,0,6-6V26A6,6,0,0,0,74,20Zm3,54a3,3,0,0,1-3,3H26a3,3,0,0,1-3-3V26a3,3,0,0,1,3-3H74a3,3,0,0,1,3,3Z"/>
          <g>
            <path class="cls-2" d="M75,26.5A1.5,1.5,0,1,1,73.5,25,1.5,1.5,0,0,1,75,26.5ZM69.5,25A1.5,1.5,0,1,0,71,26.5,1.5,1.5,0,0,0,69.5,25Zm-4,0A1.5,1.5,0,1,0,67,26.5,1.5,1.5,0,0,0,65.5,25Z"/>
            <path class="cls-2" d="M73.5,25A1.5,1.5,0,1,0,75,26.5,1.5,1.5,0,0,0,73.5,25Zm-4,0A1.5,1.5,0,1,0,71,26.5,1.5,1.5,0,0,0,69.5,25Zm-4,0A1.5,1.5,0,1,0,67,26.5,1.5,1.5,0,0,0,65.5,25Z"/>
          </g>
          <g>
            <path class="cls-2" d="M40,32v3H29V32H40m1-3H28a2,2,0,0,0-2,2v5a2,2,0,0,0,2,2H41a2,2,0,0,0,2-2V31a2,2,0,0,0-2-2Z"/>
            <path class="cls-2" d="M29,44H40v3H29V44m-1-3a2,2,0,0,0-2,2v5a2,2,0,0,0,2,2H41a2,2,0,0,0,2-2V43a2,2,0,0,0-2-2Z"/>
            <path class="cls-2" d="M40,56v3H29V56H40m1-3H28a2,2,0,0,0-2,2v5a2,2,0,0,0,2,2H41a2,2,0,0,0,2-2V55a2,2,0,0,0-2-2Z"/>
            <path class="cls-2" d="M40,68v3H29V68H40m1-3H28a2,2,0,0,0-2,2v5a2,2,0,0,0,2,2H41a2,2,0,0,0,2-2V67a2,2,0,0,0-2-2Z"/>
            <path class="cls-2" d="M60,44H71v3H60V44m-1-3a2,2,0,0,0-2,2v5a2,2,0,0,0,2,2H72a2,2,0,0,0,2-2V43a2,2,0,0,0-2-2Z"/>
            <path class="cls-2" d="M71,56v3H60V56H71m1-3H59a2,2,0,0,0-2,2v5a2,2,0,0,0,2,2H72a2,2,0,0,0,2-2V55a2,2,0,0,0-2-2Z"/>
            <path class="cls-2" d="M71,68v3H60V68H71m1-3H59a2,2,0,0,0-2,2v5a2,2,0,0,0,2,2H72a2,2,0,0,0,2-2V67a2,2,0,0,0-2-2Z"/>
            <rect class="cls-2" x="50" y="44" width="8" height="3"/>
            <rect class="cls-2" x="42" y="56" width="8" height="3"/>
            <path class="cls-2" d="M57,68a5.5,5.5,0,0,1-5.5-5.5v-22A8.5,8.5,0,0,0,43,32H41v3h2a5.5,5.5,0,0,1,5.5,5.5v22A8.5,8.5,0,0,0,57,71h2V68Z"/>
          </g>
        </g>
      </g>
    </g>
  </g>
</svg>
