<svg xmlns="http://www.w3.org/2000/svg" viewBox="0 0 100 100">
  <defs>
    <style>
      .cls-1 {
        fill: #f1f5fa;
      }

      .cls-2 {
        fill: #8c92a9;
      }
    </style>
  </defs>
  <title>icon-connect</title>
  <g id="Layer_2" data-name="Layer 2">
    <g id="готовые">
      <g id="icon-connect">
        <circle id="bg" class="cls-1" cx="50" cy="50" r="50"/>
        <g>
          <g>
            <path class="cls-2" d="M52,20H26a6,6,0,0,0-6,6V49a6,6,0,0,0,6,6H52a6,6,0,0,0,6-6V26A6,6,0,0,0,52,20Zm3,29a3,3,0,0,1-3,3H26a3,3,0,0,1-3-3V26a3,3,0,0,1,3-3H52a3,3,0,0,1,3,3Z"/>
            <g>
              <path class="cls-2" d="M28,33h7v3H28V33m-1-3a2,2,0,0,0-2,2v5a2,2,0,0,0,2,2h9a2,2,0,0,0,2-2V32a2,2,0,0,0-2-2Z"/>
              <path class="cls-2" d="M43,33h7v3H43V33m-1-3a2,2,0,0,0-2,2v5a2,2,0,0,0,2,2h9a2,2,0,0,0,2-2V32a2,2,0,0,0-2-2Z"/>
              <path class="cls-2" d="M28,44h7v3H28V44m-1-3a2,2,0,0,0-2,2v5a2,2,0,0,0,2,2h9a2,2,0,0,0,2-2V43a2,2,0,0,0-2-2Z"/>
              <path class="cls-2" d="M43,44h7v3H43V44m-1-3a2,2,0,0,0-2,2v5a2,2,0,0,0,2,2h9a2,2,0,0,0,2-2V43a2,2,0,0,0-2-2Z"/>
            </g>
            <path class="cls-2" d="M51.5,25A1.5,1.5,0,1,1,50,26.5,1.5,1.5,0,0,1,51.5,25Zm-4,0A1.5,1.5,0,1,0,49,26.5,1.5,1.5,0,0,0,47.5,25Zm-4,0A1.5,1.5,0,1,0,45,26.5,1.5,1.5,0,0,0,43.5,25Z"/>
          </g>
          <path class="cls-2" d="M69,52c-6.075,0-11,2.507-11,5.6V74.4c0,3.093,4.925,5.6,11,5.6s11-2.507,11-5.6V57.6C80,54.507,75.075,52,69,52Zm0,25c-5.209,0-7.868-1.984-8-2.6V72.635A17.261,17.261,0,0,0,69,74.4a17.262,17.262,0,0,0,8-1.765v1.751C76.868,75.016,74.209,77,69,77Zm0-5.6c-5.209,0-7.868-1.984-8-2.6V67.036a16.561,16.561,0,0,0,6.875,1.735Q68.43,68.8,69,68.8t1.125-.029A16.55,16.55,0,0,0,77,67.035v1.751C76.868,69.416,74.209,71.4,69,71.4Zm0-5.6c-5.209,0-7.868-1.984-8-2.6V61.436A17.261,17.261,0,0,0,69,63.2a17.262,17.262,0,0,0,8-1.765v1.751C76.868,63.816,74.209,65.8,69,65.8Zm0-5.6c-5.209,0-7.868-1.984-8-2.586.133-.63,2.792-2.614,8-2.614s7.868,1.984,8,2.586C76.868,58.216,74.209,60.2,69,60.2Z"/>
          <g>
            <path class="cls-2" d="M54.5,69.053H49.994v-4H54.5a1.5,1.5,0,0,0,0-3H49.994V59.5H45.129A6.121,6.121,0,0,0,39,65.5v3a6.121,6.121,0,0,0,6.129,6h4.865V72.053H54.5a1.5,1.5,0,0,0,0-3ZM46.994,71.5H45.129a3.127,3.127,0,0,1-3.135-3.113V65.613A3.127,3.127,0,0,1,45.129,62.5h1.865Z"/>
            <path class="cls-2" d="M39.5,68.5H37.3A9.308,9.308,0,0,1,28,59.2V53h3v6.2a6.3,6.3,0,0,0,6.3,6.3h2.2Z"/>
          </g>
        </g>
      </g>
    </g>
  </g>
</svg>
