<svg xmlns="http://www.w3.org/2000/svg" viewBox="0 0 100 100">
  <defs>
    <style>
      .cls-1 {
        fill: #f1f5fa;
      }

      .cls-2 {
        fill: #8c92a9;
      }
    </style>
  </defs>
  <title>icon-sources</title>
  <g id="Layer_2" data-name="Layer 2">
    <g id="готовые">
      <g id="icon-sources">
        <circle id="bg" class="cls-1" cx="50" cy="50" r="50"/>
        <g>
          <g>
            <g>
              <rect class="cls-1" x="35.5" y="21.5" width="43" height="43" rx="4.5"/>
              <path class="cls-2" d="M74,20H40a6,6,0,0,0-6,6V60a6,6,0,0,0,6,6H74a6,6,0,0,0,6-6V26A6,6,0,0,0,74,20Zm3,40a3,3,0,0,1-3,3H40a3,3,0,0,1-3-3V26a3,3,0,0,1,3-3H74a3,3,0,0,1,3,3Z"/>
            </g>
            <g>
              <g>
                <circle class="cls-1" cx="73.5" cy="26.5" r="1.5"/>
                <path class="cls-2" d="M73.5,25A1.5,1.5,0,1,0,75,26.5,1.5,1.5,0,0,0,73.5,25Z"/>
              </g>
              <g>
                <circle class="cls-1" cx="69.5" cy="26.5" r="1.5"/>
                <path class="cls-2" d="M69.5,25A1.5,1.5,0,1,0,71,26.5,1.5,1.5,0,0,0,69.5,25Z"/>
              </g>
              <g>
                <circle class="cls-1" cx="65.5" cy="26.5" r="1.5"/>
                <path class="cls-2" d="M65.5,25A1.5,1.5,0,1,0,67,26.5,1.5,1.5,0,0,0,65.5,25Z"/>
              </g>
            </g>
          </g>
          <g>
            <g>
              <rect class="cls-1" x="28.5" y="28.5" width="43" height="43" rx="4.5"/>
              <path class="cls-2" d="M67,27H33a6,6,0,0,0-6,6V67a6,6,0,0,0,6,6H67a6,6,0,0,0,6-6V33A6,6,0,0,0,67,27Zm3,40a3,3,0,0,1-3,3H33a3,3,0,0,1-3-3V33a3,3,0,0,1,3-3H67a3,3,0,0,1,3,3Z"/>
            </g>
            <g>
              <g>
                <circle class="cls-1" cx="66.5" cy="33.5" r="1.5"/>
                <path class="cls-2" d="M66.5,32A1.5,1.5,0,1,0,68,33.5,1.5,1.5,0,0,0,66.5,32Z"/>
              </g>
              <g>
                <circle class="cls-1" cx="62.5" cy="33.5" r="1.5"/>
                <path class="cls-2" d="M62.5,32A1.5,1.5,0,1,0,64,33.5,1.5,1.5,0,0,0,62.5,32Z"/>
              </g>
              <g>
                <circle class="cls-1" cx="58.5" cy="33.5" r="1.5"/>
                <path class="cls-2" d="M58.5,32A1.5,1.5,0,1,0,60,33.5,1.5,1.5,0,0,0,58.5,32Z"/>
              </g>
            </g>
          </g>
          <g>
            <g>
              <rect class="cls-1" x="21.5" y="35.5" width="43" height="43" rx="4.5"/>
              <path class="cls-2" d="M60,34H26a6,6,0,0,0-6,6V74a6,6,0,0,0,6,6H60a6,6,0,0,0,6-6V40A6,6,0,0,0,60,34Zm3,40a3,3,0,0,1-3,3H26a3,3,0,0,1-3-3V40a3,3,0,0,1,3-3H60a3,3,0,0,1,3,3Z"/>
            </g>
            <g>
              <g>
                <rect class="cls-1" x="51.5" y="61.5" width="8" height="6" rx="0.5"/>
                <path class="cls-2" d="M58,63v3H53V63h5m1-3H52a2,2,0,0,0-2,2v5a2,2,0,0,0,2,2h7a2,2,0,0,0,2-2V62a2,2,0,0,0-2-2Z"/>
              </g>
              <g>
                <rect class="cls-1" x="51.5" y="49.5" width="8" height="6" rx="0.5"/>
                <path class="cls-2" d="M58,51v3H53V51h5m1-3H52a2,2,0,0,0-2,2v5a2,2,0,0,0,2,2h7a2,2,0,0,0,2-2V50a2,2,0,0,0-2-2Z"/>
              </g>
              <rect class="cls-2" x="47" y="51" width="4" height="3"/>
              <rect class="cls-2" x="41" y="63" width="10" height="3"/>
              <g>
                <rect class="cls-1" x="26.5" y="43.5" width="8" height="6" rx="0.5"/>
                <path class="cls-2" d="M28,45h5v3H28V45m-1-3a2,2,0,0,0-2,2v5a2,2,0,0,0,2,2h7a2,2,0,0,0,2-2V44a2,2,0,0,0-2-2Z"/>
              </g>
              <g>
                <rect class="cls-1" x="26.5" y="55.5" width="8" height="6" rx="0.5"/>
                <path class="cls-2" d="M28,57h5v3H28V57m-1-3a2,2,0,0,0-2,2v5a2,2,0,0,0,2,2h7a2,2,0,0,0,2-2V56a2,2,0,0,0-2-2Z"/>
              </g>
              <g>
                <rect class="cls-1" x="26.5" y="67.5" width="8" height="6" rx="0.5"/>
                <path class="cls-2" d="M28,69h5v3H28V69m-1-3a2,2,0,0,0-2,2v5a2,2,0,0,0,2,2h7a2,2,0,0,0,2-2V68a2,2,0,0,0-2-2Z"/>
              </g>
              <path class="cls-2" d="M36,72V69a2.5,2.5,0,0,0,2.5-2.5v-16A2.5,2.5,0,0,0,36,48V45a5.506,5.506,0,0,1,5.5,5.5v16A5.506,5.506,0,0,1,36,72Z"/>
              <path class="cls-2" d="M42,45v0H36v3h5.937a2.5,2.5,0,0,1,2.5,2.5v4a2.5,2.5,0,0,1-2.5,2.5H36v3h6v0a5.506,5.506,0,0,0,5.437-5.5v-4A5.506,5.506,0,0,0,42,45Z"/>
            </g>
            <g>
              <g>
                <circle class="cls-1" cx="59.5" cy="40.5" r="1.5"/>
                <path class="cls-2" d="M59.5,39A1.5,1.5,0,1,0,61,40.5,1.5,1.5,0,0,0,59.5,39Z"/>
              </g>
              <g>
                <circle class="cls-1" cx="55.5" cy="40.5" r="1.5"/>
                <path class="cls-2" d="M55.5,39A1.5,1.5,0,1,0,57,40.5,1.5,1.5,0,0,0,55.5,39Z"/>
              </g>
              <g>
                <circle class="cls-1" cx="51.5" cy="40.5" r="1.5"/>
                <path class="cls-2" d="M51.5,39A1.5,1.5,0,1,0,53,40.5,1.5,1.5,0,0,0,51.5,39Z"/>
              </g>
            </g>
          </g>
        </g>
      </g>
    </g>
  </g>
</svg>
